<svg width="454" height="92" viewBox="0 0 454 92" fill="none" xmlns="http://www.w3.org/2000/svg">
<path d="M453.5 0.5H0.5V91.5H453.5V0.5Z" fill="white"/>
<path d="M141.095 34.3872H150.828V39.5H130.962L141.958 21.3896H132.81V16.2768H152.029L141.095 34.3872ZM160.957 16.2768V28.9048C160.957 29.5824 160.978 30.2805 161.019 30.9992C161.08 31.6973 161.234 32.3339 161.481 32.9088C161.748 33.4837 162.158 33.956 162.713 34.3256C163.267 34.6747 164.047 34.8492 165.054 34.8492C166.06 34.8492 166.83 34.6747 167.364 34.3256C167.918 33.956 168.329 33.4837 168.596 32.9088C168.862 32.3339 169.016 31.6973 169.058 30.9992C169.119 30.2805 169.15 29.5824 169.15 28.9048V16.2768H175.156V29.7364C175.156 33.3503 174.324 35.9888 172.661 37.652C171.018 39.3152 168.483 40.1468 165.054 40.1468C161.624 40.1468 159.078 39.3152 157.415 37.652C155.752 35.9888 154.92 33.3503 154.92 29.7364V16.2768H160.957ZM178.988 39.5L182.931 16.2768H188.906L193.557 28.6584L198.177 16.2768H204.152L208.094 39.5H202.088L200.086 26.1328L194.604 39.5H192.202L186.996 26.1328L184.994 39.5H178.988ZM228.422 25.8556L235.784 16.2768H243.237L234.028 27.2724L244.1 39.5H236.276L228.422 29.4284V39.5H222.386V16.2768H228.422V25.8556ZM252.816 16.2768V28.9048C252.816 29.5824 252.836 30.2805 252.877 30.9992C252.939 31.6973 253.093 32.3339 253.339 32.9088C253.606 33.4837 254.017 33.956 254.571 34.3256C255.126 34.6747 255.906 34.8492 256.912 34.8492C257.918 34.8492 258.688 34.6747 259.222 34.3256C259.777 33.956 260.187 33.4837 260.454 32.9088C260.721 32.3339 260.875 31.6973 260.916 30.9992C260.978 30.2805 261.009 29.5824 261.009 28.9048V16.2768H267.015V29.7364C267.015 33.3503 266.183 35.9888 264.52 37.652C262.877 39.3152 260.341 40.1468 256.912 40.1468C253.483 40.1468 250.937 39.3152 249.274 37.652C247.611 35.9888 246.779 33.3503 246.779 29.7364V16.2768H252.816ZM271.894 39.5V16.2768H277.931L289.081 30.4756V16.2768H295.087V39.5H289.081L277.931 25.3012V39.5H271.894ZM312.708 22.2212C312.051 21.6873 311.394 21.2972 310.737 21.0508C310.08 20.7839 309.443 20.6504 308.827 20.6504C308.047 20.6504 307.411 20.8352 306.918 21.2048C306.425 21.5744 306.179 22.0569 306.179 22.6524C306.179 23.0631 306.302 23.4019 306.548 23.6688C306.795 23.9357 307.113 24.1719 307.503 24.3772C307.914 24.562 308.365 24.7263 308.858 24.87C309.372 25.0137 309.875 25.1677 310.367 25.332C312.339 25.9891 313.776 26.872 314.679 27.9808C315.603 29.0691 316.065 30.4961 316.065 32.262C316.065 33.4529 315.86 34.5309 315.449 35.496C315.059 36.4611 314.474 37.2927 313.694 37.9908C312.934 38.6684 311.99 39.192 310.86 39.5616C309.751 39.9517 308.489 40.1468 307.072 40.1468C304.136 40.1468 301.415 39.2741 298.91 37.5288L301.497 32.6624C302.4 33.4632 303.294 34.0587 304.177 34.4488C305.06 34.8389 305.932 35.034 306.795 35.034C307.78 35.034 308.509 34.8081 308.981 34.3564C309.474 33.9047 309.721 33.3913 309.721 32.8164C309.721 32.4673 309.659 32.1696 309.536 31.9232C309.413 31.6563 309.207 31.4201 308.92 31.2148C308.632 30.9889 308.252 30.7836 307.78 30.5988C307.328 30.414 306.774 30.2087 306.117 29.9828C305.337 29.7364 304.567 29.4695 303.807 29.182C303.068 28.874 302.4 28.4736 301.805 27.9808C301.23 27.488 300.758 26.872 300.388 26.1328C300.039 25.3731 299.865 24.4183 299.865 23.2684C299.865 22.1185 300.049 21.0816 300.419 20.1576C300.809 19.2131 301.343 18.4123 302.021 17.7552C302.719 17.0776 303.561 16.554 304.546 16.1844C305.552 15.8148 306.671 15.63 307.903 15.63C309.053 15.63 310.254 15.7943 311.507 16.1228C312.76 16.4308 313.961 16.8928 315.111 17.5088L312.708 22.2212ZM328.828 21.3896V39.5H322.791V21.3896H317.832V16.2768H333.787V21.3896H328.828ZM342.509 25.2396H351.225V16.2768H357.262V39.5H351.225V29.9212H342.509V39.5H336.472V16.2768H342.509V25.2396ZM374.757 30.876L372.046 23.1452L369.336 30.876H374.757ZM376.358 35.4652H367.734L366.348 39.5H359.911L368.751 16.2768H375.342L384.181 39.5H377.744L376.358 35.4652ZM392.198 16.2768V28.9048C392.198 29.5824 392.218 30.2805 392.259 30.9992C392.321 31.6973 392.475 32.3339 392.721 32.9088C392.988 33.4837 393.399 33.956 393.953 34.3256C394.508 34.6747 395.288 34.8492 396.294 34.8492C397.3 34.8492 398.07 34.6747 398.604 34.3256C399.159 33.956 399.569 33.4837 399.836 32.9088C400.103 32.3339 400.257 31.6973 400.298 30.9992C400.36 30.2805 400.391 29.5824 400.391 28.9048V16.2768H406.397V29.7364C406.397 33.3503 405.565 35.9888 403.902 37.652C402.259 39.3152 399.723 40.1468 396.294 40.1468C392.865 40.1468 390.319 39.3152 388.656 37.652C386.993 35.9888 386.161 33.3503 386.161 29.7364V16.2768H392.198ZM424.027 22.2212C423.37 21.6873 422.713 21.2972 422.056 21.0508C421.399 20.7839 420.763 20.6504 420.147 20.6504C419.366 20.6504 418.73 20.8352 418.237 21.2048C417.744 21.5744 417.498 22.0569 417.498 22.6524C417.498 23.0631 417.621 23.4019 417.867 23.6688C418.114 23.9357 418.432 24.1719 418.822 24.3772C419.233 24.562 419.685 24.7263 420.177 24.87C420.691 25.0137 421.194 25.1677 421.687 25.332C423.658 25.9891 425.095 26.872 425.999 27.9808C426.923 29.0691 427.385 30.4961 427.385 32.262C427.385 33.4529 427.179 34.5309 426.769 35.496C426.378 36.4611 425.793 37.2927 425.013 37.9908C424.253 38.6684 423.309 39.192 422.179 39.5616C421.071 39.9517 419.808 40.1468 418.391 40.1468C415.455 40.1468 412.734 39.2741 410.229 37.5288L412.816 32.6624C413.72 33.4632 414.613 34.0587 415.496 34.4488C416.379 34.8389 417.251 35.034 418.114 35.034C419.099 35.034 419.828 34.8081 420.301 34.3564C420.793 33.9047 421.04 33.3913 421.04 32.8164C421.04 32.4673 420.978 32.1696 420.855 31.9232C420.732 31.6563 420.526 31.4201 420.239 31.2148C419.951 30.9889 419.572 30.7836 419.099 30.5988C418.648 30.414 418.093 30.2087 417.436 29.9828C416.656 29.7364 415.886 29.4695 415.126 29.182C414.387 28.874 413.72 28.4736 413.124 27.9808C412.549 27.488 412.077 26.872 411.707 26.1328C411.358 25.3731 411.184 24.4183 411.184 23.2684C411.184 22.1185 411.369 21.0816 411.738 20.1576C412.128 19.2131 412.662 18.4123 413.34 17.7552C414.038 17.0776 414.88 16.554 415.865 16.1844C416.871 15.8148 417.991 15.63 419.223 15.63C420.372 15.63 421.574 15.7943 422.826 16.1228C424.079 16.4308 425.28 16.8928 426.43 17.5088L424.027 22.2212ZM430.387 36.5432C430.387 36.0504 430.479 35.5884 430.664 35.1572C430.849 34.7055 431.106 34.3153 431.434 33.9868C431.763 33.6583 432.143 33.4016 432.574 33.2168C433.026 33.032 433.498 32.9396 433.991 32.9396C434.483 32.9396 434.945 33.032 435.377 33.2168C435.828 33.4016 436.219 33.6583 436.547 33.9868C436.876 34.3153 437.132 34.7055 437.317 35.1572C437.502 35.5884 437.594 36.0504 437.594 36.5432C437.594 37.036 437.502 37.5083 437.317 37.96C437.132 38.3912 436.876 38.7711 436.547 39.0996C436.219 39.4281 435.828 39.6848 435.377 39.8696C434.945 40.0544 434.483 40.1468 433.991 40.1468C433.498 40.1468 433.026 40.0544 432.574 39.8696C432.143 39.6848 431.763 39.4281 431.434 39.0996C431.106 38.7711 430.849 38.3912 430.664 37.96C430.479 37.5083 430.387 37.036 430.387 36.5432ZM141.095 71.3872H150.828V76.5H130.962L141.958 58.3896H132.81V53.2768H152.029L141.095 71.3872ZM160.957 53.2768V65.9048C160.957 66.5824 160.978 67.2805 161.019 67.9992C161.08 68.6973 161.234 69.3339 161.481 69.9088C161.748 70.4837 162.158 70.956 162.713 71.3256C163.267 71.6747 164.047 71.8492 165.054 71.8492C166.06 71.8492 166.83 71.6747 167.364 71.3256C167.918 70.956 168.329 70.4837 168.596 69.9088C168.862 69.3339 169.016 68.6973 169.058 67.9992C169.119 67.2805 169.15 66.5824 169.15 65.9048V53.2768H175.156V66.7364C175.156 70.3503 174.324 72.9888 172.661 74.652C171.018 76.3152 168.483 77.1468 165.054 77.1468C161.624 77.1468 159.078 76.3152 157.415 74.652C155.752 72.9888 154.92 70.3503 154.92 66.7364V53.2768H160.957ZM178.988 76.5L182.931 53.2768H188.906L193.557 65.6584L198.177 53.2768H204.152L208.094 76.5H202.088L200.086 63.1328L194.604 76.5H192.202L186.996 63.1328L184.994 76.5H178.988ZM228.422 62.8556L235.784 53.2768H243.237L234.028 64.2724L244.1 76.5H236.276L228.422 66.4284V76.5H222.386V53.2768H228.422V62.8556ZM252.816 53.2768V65.9048C252.816 66.5824 252.836 67.2805 252.877 67.9992C252.939 68.6973 253.093 69.3339 253.339 69.9088C253.606 70.4837 254.017 70.956 254.571 71.3256C255.126 71.6747 255.906 71.8492 256.912 71.8492C257.918 71.8492 258.688 71.6747 259.222 71.3256C259.777 70.956 260.187 70.4837 260.454 69.9088C260.721 69.3339 260.875 68.6973 260.916 67.9992C260.978 67.2805 261.009 66.5824 261.009 65.9048V53.2768H267.015V66.7364C267.015 70.3503 266.183 72.9888 264.52 74.652C262.877 76.3152 260.341 77.1468 256.912 77.1468C253.483 77.1468 250.937 76.3152 249.274 74.652C247.611 72.9888 246.779 70.3503 246.779 66.7364V53.2768H252.816ZM277.931 53.2768V71.3872H285.169V76.5H271.894V53.2768H277.931ZM295.862 58.3896V76.5H289.826V58.3896H284.867V53.2768H300.821V58.3896H295.862ZM309.543 53.2768V65.9048C309.543 66.5824 309.564 67.2805 309.605 67.9992C309.666 68.6973 309.82 69.3339 310.067 69.9088C310.334 70.4837 310.744 70.956 311.299 71.3256C311.853 71.6747 312.633 71.8492 313.639 71.8492C314.646 71.8492 315.416 71.6747 315.949 71.3256C316.504 70.956 316.915 70.4837 317.181 69.9088C317.448 69.3339 317.602 68.6973 317.643 67.9992C317.705 67.2805 317.736 66.5824 317.736 65.9048V53.2768H323.742V66.7364C323.742 70.3503 322.91 72.9888 321.247 74.652C319.604 76.3152 317.069 77.1468 313.639 77.1468C310.21 77.1468 307.664 76.3152 306.001 74.652C304.338 72.9888 303.506 70.3503 303.506 66.7364V53.2768H309.543ZM334.658 63.6564H335.798C336.989 63.6564 337.903 63.41 338.539 62.9172C339.176 62.4244 339.494 61.716 339.494 60.792C339.494 59.868 339.176 59.1596 338.539 58.6668C337.903 58.174 336.989 57.9276 335.798 57.9276H334.658V63.6564ZM347.933 76.5H340.418L334.658 67.568V76.5H328.621V53.2768H338.015C339.309 53.2768 340.438 53.4719 341.403 53.862C342.369 54.2316 343.159 54.7449 343.775 55.402C344.412 56.0591 344.884 56.8188 345.192 57.6812C345.52 58.5436 345.685 59.4676 345.685 60.4532C345.685 62.2191 345.253 63.6564 344.391 64.7652C343.549 65.8535 342.297 66.5927 340.633 66.9828L347.933 76.5ZM363.671 58.3896H356.495V62.2704H363.271V67.3832H356.495V71.3872H363.671V76.5H350.458V53.2768H363.671V58.3896ZM374.061 63.6564H375.2C376.391 63.6564 377.305 63.41 377.941 62.9172C378.578 62.4244 378.896 61.716 378.896 60.792C378.896 59.868 378.578 59.1596 377.941 58.6668C377.305 58.174 376.391 57.9276 375.2 57.9276H374.061V63.6564ZM387.335 76.5H379.82L374.061 67.568V76.5H368.024V53.2768H377.418C378.711 53.2768 379.841 53.4719 380.806 53.862C381.771 54.2316 382.561 54.7449 383.177 55.402C383.814 56.0591 384.286 56.8188 384.594 57.6812C384.923 58.5436 385.087 59.4676 385.087 60.4532C385.087 62.2191 384.656 63.6564 383.793 64.7652C382.952 65.8535 381.699 66.5927 380.036 66.9828L387.335 76.5ZM395.897 71.8184H397.222C398.741 71.8184 399.829 71.6233 400.487 71.2332C401.144 70.8431 401.472 70.2168 401.472 69.3544C401.472 68.492 401.144 67.8657 400.487 67.4756C399.829 67.0855 398.741 66.8904 397.222 66.8904H395.897V71.8184ZM395.897 62.3936H397.006C398.895 62.3936 399.84 61.6441 399.84 60.1452C399.84 58.6463 398.895 57.8968 397.006 57.8968H395.897V62.3936ZM389.861 53.2768H398.854C400.99 53.2768 402.612 53.7901 403.721 54.8168C404.829 55.8435 405.384 57.3219 405.384 59.252C405.384 60.4224 405.168 61.3977 404.737 62.178C404.326 62.9377 403.69 63.5845 402.827 64.1184C403.69 64.2827 404.419 64.5393 405.014 64.8884C405.63 65.2169 406.123 65.6276 406.493 66.1204C406.883 66.6132 407.16 67.1676 407.324 67.7836C407.488 68.3996 407.571 69.0567 407.571 69.7548C407.571 70.8431 407.375 71.8081 406.985 72.65C406.616 73.4919 406.082 74.2003 405.384 74.7752C404.706 75.3501 403.875 75.7813 402.889 76.0688C401.903 76.3563 400.795 76.5 399.563 76.5H389.861V53.2768ZM424.399 58.3896H417.223V62.2704H423.999V67.3832H417.223V71.3872H424.399V76.5H411.186V53.2768H424.399V58.3896ZM427.951 73.5432C427.951 73.0504 428.043 72.5884 428.228 72.1572C428.413 71.7055 428.669 71.3153 428.998 70.9868C429.326 70.6583 429.706 70.4016 430.138 70.2168C430.589 70.032 431.062 69.9396 431.554 69.9396C432.047 69.9396 432.509 70.032 432.94 70.2168C433.392 70.4016 433.782 70.6583 434.111 70.9868C434.439 71.3153 434.696 71.7055 434.881 72.1572C435.066 72.5884 435.158 73.0504 435.158 73.5432C435.158 74.036 435.066 74.5083 434.881 74.96C434.696 75.3912 434.439 75.7711 434.111 76.0996C433.782 76.4281 433.392 76.6848 432.94 76.8696C432.509 77.0544 432.047 77.1468 431.554 77.1468C431.062 77.1468 430.589 77.0544 430.138 76.8696C429.706 76.6848 429.326 76.4281 428.998 76.0996C428.669 75.7711 428.413 75.3912 428.228 74.96C428.043 74.5083 427.951 74.036 427.951 73.5432Z" fill="#0000FF"/>
<path d="M453.5 0.5H0.5V91.5H453.5V0.5Z" stroke="#0000FF"/>
<path d="M51.217 16.0366V57.9299C51.217 59.7333 51.217 61.2592 50.9406 62.7851C50.8024 64.311 50.3878 65.5595 49.9732 66.6692C49.2823 68.3339 48.3149 69.9985 47.2094 71.3857C45.9656 72.7729 44.5837 74.0214 43.0635 74.9924C41.4052 75.9634 39.7469 76.7958 37.8122 77.3507C35.8775 77.9055 33.8046 78.1829 31.7316 78.1829C25.2365 78.1829 20.1234 75.2698 15.9775 69.3049L26.2039 58.7622C26.4803 60.5656 27.033 61.9528 28.0004 63.0625C28.9678 64.1723 30.0733 64.7272 31.317 64.7272C34.2191 64.7272 35.7393 62.3689 35.7393 57.7912V16.1753H51.3552L51.217 16.0366Z" fill="#0000FF"/>
<path d="M97.7884 65.9756H75.5391L71.9461 76.5183H55.2246L78.0266 16.1753H95.0245L117.826 76.5183H101.105L97.512 65.9756H97.7884ZM93.6425 54.0457L86.5946 33.9314L79.5468 54.0457H93.5043H93.6425Z" fill="#0000FF"/>
</svg>
