<svg width="454" height="92" viewBox="0 0 454 92" fill="none" xmlns="http://www.w3.org/2000/svg">
<path d="M453.5 0.5H0.5V91.5H453.5V0.5Z" fill="white"/>
<path d="M141.095 34.3872H150.828V39.5H130.962L141.958 21.3896H132.81V16.2768H152.029L141.095 34.3872ZM160.957 16.2768V28.9048C160.957 29.5824 160.978 30.2805 161.019 30.9992C161.08 31.6973 161.234 32.3339 161.481 32.9088C161.748 33.4837 162.158 33.956 162.713 34.3256C163.267 34.6747 164.047 34.8492 165.054 34.8492C166.06 34.8492 166.83 34.6747 167.364 34.3256C167.918 33.956 168.329 33.4837 168.596 32.9088C168.862 32.3339 169.016 31.6973 169.058 30.9992C169.119 30.2805 169.15 29.5824 169.15 28.9048V16.2768H175.156V29.7364C175.156 33.3503 174.324 35.9888 172.661 37.652C171.018 39.3152 168.483 40.1468 165.054 40.1468C161.624 40.1468 159.078 39.3152 157.415 37.652C155.752 35.9888 154.92 33.3503 154.92 29.7364V16.2768H160.957ZM178.988 39.5L182.931 16.2768H188.906L193.557 28.6584L198.177 16.2768H204.152L208.094 39.5H202.088L200.086 26.1328L194.604 39.5H192.202L186.996 26.1328L184.994 39.5H178.988ZM228.422 25.8556L235.784 16.2768H243.237L234.028 27.2724L244.1 39.5H236.276L228.422 29.4284V39.5H222.386V16.2768H228.422V25.8556ZM252.816 16.2768V28.9048C252.816 29.5824 252.836 30.2805 252.877 30.9992C252.939 31.6973 253.093 32.3339 253.339 32.9088C253.606 33.4837 254.017 33.956 254.571 34.3256C255.126 34.6747 255.906 34.8492 256.912 34.8492C257.918 34.8492 258.688 34.6747 259.222 34.3256C259.777 33.956 260.187 33.4837 260.454 32.9088C260.721 32.3339 260.875 31.6973 260.916 30.9992C260.978 30.2805 261.009 29.5824 261.009 28.9048V16.2768H267.015V29.7364C267.015 33.3503 266.183 35.9888 264.52 37.652C262.877 39.3152 260.341 40.1468 256.912 40.1468C253.483 40.1468 250.937 39.3152 249.274 37.652C247.611 35.9888 246.779 33.3503 246.779 29.7364V16.2768H252.816ZM271.894 39.5V16.2768H277.931L289.081 30.4756V16.2768H295.087V39.5H289.081L277.931 25.3012V39.5H271.894ZM312.708 22.2212C312.051 21.6873 311.394 21.2972 310.737 21.0508C310.08 20.7839 309.443 20.6504 308.827 20.6504C308.047 20.6504 307.411 20.8352 306.918 21.2048C306.425 21.5744 306.179 22.0569 306.179 22.6524C306.179 23.0631 306.302 23.4019 306.548 23.6688C306.795 23.9357 307.113 24.1719 307.503 24.3772C307.914 24.562 308.365 24.7263 308.858 24.87C309.372 25.0137 309.875 25.1677 310.367 25.332C312.339 25.9891 313.776 26.872 314.679 27.9808C315.603 29.0691 316.065 30.4961 316.065 32.262C316.065 33.4529 315.86 34.5309 315.449 35.496C315.059 36.4611 314.474 37.2927 313.694 37.9908C312.934 38.6684 311.99 39.192 310.86 39.5616C309.751 39.9517 308.489 40.1468 307.072 40.1468C304.136 40.1468 301.415 39.2741 298.91 37.5288L301.497 32.6624C302.4 33.4632 303.294 34.0587 304.177 34.4488C305.06 34.8389 305.932 35.034 306.795 35.034C307.78 35.034 308.509 34.8081 308.981 34.3564C309.474 33.9047 309.721 33.3913 309.721 32.8164C309.721 32.4673 309.659 32.1696 309.536 31.9232C309.413 31.6563 309.207 31.4201 308.92 31.2148C308.632 30.9889 308.252 30.7836 307.78 30.5988C307.328 30.414 306.774 30.2087 306.117 29.9828C305.337 29.7364 304.567 29.4695 303.807 29.182C303.068 28.874 302.4 28.4736 301.805 27.9808C301.23 27.488 300.758 26.872 300.388 26.1328C300.039 25.3731 299.865 24.4183 299.865 23.2684C299.865 22.1185 300.049 21.0816 300.419 20.1576C300.809 19.2131 301.343 18.4123 302.021 17.7552C302.719 17.0776 303.561 16.554 304.546 16.1844C305.552 15.8148 306.671 15.63 307.903 15.63C309.053 15.63 310.254 15.7943 311.507 16.1228C312.76 16.4308 313.961 16.8928 315.111 17.5088L312.708 22.2212ZM328.828 21.3896V39.5H322.791V21.3896H317.832V16.2768H333.787V21.3896H328.828ZM342.509 25.2396H351.225V16.2768H357.262V39.5H351.225V29.9212H342.509V39.5H336.472V16.2768H342.509V25.2396ZM374.757 30.876L372.046 23.1452L369.336 30.876H374.757ZM376.358 35.4652H367.734L366.348 39.5H359.911L368.751 16.2768H375.342L384.181 39.5H377.744L376.358 35.4652ZM392.198 16.2768V28.9048C392.198 29.5824 392.218 30.2805 392.259 30.9992C392.321 31.6973 392.475 32.3339 392.721 32.9088C392.988 33.4837 393.399 33.956 393.953 34.3256C394.508 34.6747 395.288 34.8492 396.294 34.8492C397.3 34.8492 398.07 34.6747 398.604 34.3256C399.159 33.956 399.569 33.4837 399.836 32.9088C400.103 32.3339 400.257 31.6973 400.298 30.9992C400.36 30.2805 400.391 29.5824 400.391 28.9048V16.2768H406.397V29.7364C406.397 33.3503 405.565 35.9888 403.902 37.652C402.259 39.3152 399.723 40.1468 396.294 40.1468C392.865 40.1468 390.319 39.3152 388.656 37.652C386.993 35.9888 386.161 33.3503 386.161 29.7364V16.2768H392.198ZM424.027 22.2212C423.37 21.6873 422.713 21.2972 422.056 21.0508C421.399 20.7839 420.763 20.6504 420.147 20.6504C419.366 20.6504 418.73 20.8352 418.237 21.2048C417.744 21.5744 417.498 22.0569 417.498 22.6524C417.498 23.0631 417.621 23.4019 417.867 23.6688C418.114 23.9357 418.432 24.1719 418.822 24.3772C419.233 24.562 419.685 24.7263 420.177 24.87C420.691 25.0137 421.194 25.1677 421.687 25.332C423.658 25.9891 425.095 26.872 425.999 27.9808C426.923 29.0691 427.385 30.4961 427.385 32.262C427.385 33.4529 427.179 34.5309 426.769 35.496C426.378 36.4611 425.793 37.2927 425.013 37.9908C424.253 38.6684 423.309 39.192 422.179 39.5616C421.071 39.9517 419.808 40.1468 418.391 40.1468C415.455 40.1468 412.734 39.2741 410.229 37.5288L412.816 32.6624C413.72 33.4632 414.613 34.0587 415.496 34.4488C416.379 34.8389 417.251 35.034 418.114 35.034C419.099 35.034 419.828 34.8081 420.301 34.3564C420.793 33.9047 421.04 33.3913 421.04 32.8164C421.04 32.4673 420.978 32.1696 420.855 31.9232C420.732 31.6563 420.526 31.4201 420.239 31.2148C419.951 30.9889 419.572 30.7836 419.099 30.5988C418.648 30.414 418.093 30.2087 417.436 29.9828C416.656 29.7364 415.886 29.4695 415.126 29.182C414.387 28.874 413.72 28.4736 413.124 27.9808C412.549 27.488 412.077 26.872 411.707 26.1328C411.358 25.3731 411.184 24.4183 411.184 23.2684C411.184 22.1185 411.369 21.0816 411.738 20.1576C412.128 19.2131 412.662 18.4123 413.34 17.7552C414.038 17.0776 414.88 16.554 415.865 16.1844C416.871 15.8148 417.991 15.63 419.223 15.63C420.372 15.63 421.574 15.7943 422.826 16.1228C424.079 16.4308 425.28 16.8928 426.43 17.5088L424.027 22.2212ZM430.387 36.5432C430.387 36.0504 430.479 35.5884 430.664 35.1572C430.849 34.7055 431.106 34.3153 431.434 33.9868C431.763 33.6583 432.143 33.4016 432.574 33.2168C433.026 33.032 433.498 32.9396 433.991 32.9396C434.483 32.9396 434.945 33.032 435.377 33.2168C435.828 33.4016 436.219 33.6583 436.547 33.9868C436.876 34.3153 437.132 34.7055 437.317 35.1572C437.502 35.5884 437.594 36.0504 437.594 36.5432C437.594 37.036 437.502 37.5083 437.317 37.96C437.132 38.3912 436.876 38.7711 436.547 39.0996C436.219 39.4281 435.828 39.6848 435.377 39.8696C434.945 40.0544 434.483 40.1468 433.991 40.1468C433.498 40.1468 433.026 40.0544 432.574 39.8696C432.143 39.6848 431.763 39.4281 431.434 39.0996C431.106 38.7711 430.849 38.3912 430.664 37.96C430.479 37.5083 430.387 37.036 430.387 36.5432ZM141.095 71.3872H150.828V76.5H130.962L141.958 58.3896H132.81V53.2768H152.029L141.095 71.3872ZM160.957 53.2768V65.9048C160.957 66.5824 160.978 67.2805 161.019 67.9992C161.08 68.6973 161.234 69.3339 161.481 69.9088C161.748 70.4837 162.158 70.956 162.713 71.3256C163.267 71.6747 164.047 71.8492 165.054 71.8492C166.06 71.8492 166.83 71.6747 167.364 71.3256C167.918 70.956 168.329 70.4837 168.596 69.9088C168.862 69.3339 169.016 68.6973 169.058 67.9992C169.119 67.2805 169.15 66.5824 169.15 65.9048V53.2768H175.156V66.7364C175.156 70.3503 174.324 72.9888 172.661 74.652C171.018 76.3152 168.483 77.1468 165.054 77.1468C161.624 77.1468 159.078 76.3152 157.415 74.652C155.752 72.9888 154.92 70.3503 154.92 66.7364V53.2768H160.957ZM196.54 71.8184H197.864C199.383 71.8184 200.472 71.6233 201.129 71.2332C201.786 70.8431 202.114 70.2168 202.114 69.3544C202.114 68.492 201.786 67.8657 201.129 67.4756C200.472 67.0855 199.383 66.8904 197.864 66.8904H196.54V71.8184ZM196.54 62.3936H197.648C199.537 62.3936 200.482 61.6441 200.482 60.1452C200.482 58.6463 199.537 57.8968 197.648 57.8968H196.54V62.3936ZM190.503 53.2768H199.496C201.632 53.2768 203.254 53.7901 204.363 54.8168C205.472 55.8435 206.026 57.3219 206.026 59.252C206.026 60.4224 205.81 61.3977 205.379 62.178C204.968 62.9377 204.332 63.5845 203.47 64.1184C204.332 64.2827 205.061 64.5393 205.656 64.8884C206.272 65.2169 206.765 65.6276 207.135 66.1204C207.525 66.6132 207.802 67.1676 207.966 67.7836C208.131 68.3996 208.213 69.0567 208.213 69.7548C208.213 70.8431 208.018 71.8081 207.628 72.65C207.258 73.4919 206.724 74.2003 206.026 74.7752C205.348 75.3501 204.517 75.7813 203.531 76.0688C202.546 76.3563 201.437 76.5 200.205 76.5H190.503V53.2768ZM217.865 53.2768V76.5H211.828V53.2768H217.865ZM228.753 53.2768V71.3872H235.991V76.5H222.716V53.2768H228.753ZM245.146 71.3872H246.532C247.579 71.3872 248.513 71.2229 249.335 70.8944C250.156 70.5659 250.844 70.1141 251.398 69.5392C251.973 68.9643 252.404 68.2867 252.692 67.5064C253 66.7056 253.154 65.8329 253.154 64.8884C253.154 63.9644 253 63.102 252.692 62.3012C252.384 61.5004 251.942 60.8125 251.367 60.2376C250.813 59.6627 250.125 59.2109 249.304 58.8824C248.482 58.5539 247.558 58.3896 246.532 58.3896H245.146V71.3872ZM239.109 53.2768H248.041C249.622 53.2768 251.1 53.5951 252.476 54.2316C253.872 54.8681 255.084 55.7203 256.111 56.788C257.158 57.8352 257.979 59.0672 258.575 60.484C259.17 61.8803 259.468 63.3484 259.468 64.8884C259.468 66.4079 259.17 67.876 258.575 69.2928C258 70.6891 257.189 71.9211 256.141 72.9888C255.115 74.0565 253.903 74.9087 252.507 75.5452C251.131 76.1817 249.643 76.5 248.041 76.5H239.109V53.2768ZM269.359 53.2768V65.9048C269.359 66.5824 269.379 67.2805 269.42 67.9992C269.482 68.6973 269.636 69.3339 269.882 69.9088C270.149 70.4837 270.56 70.956 271.114 71.3256C271.669 71.6747 272.449 71.8492 273.455 71.8492C274.461 71.8492 275.231 71.6747 275.765 71.3256C276.319 70.956 276.73 70.4837 276.997 69.9088C277.264 69.3339 277.418 68.6973 277.459 67.9992C277.521 67.2805 277.551 66.5824 277.551 65.9048V53.2768H283.557V66.7364C283.557 70.3503 282.726 72.9888 281.063 74.652C279.42 76.3152 276.884 77.1468 273.455 77.1468C270.026 77.1468 267.48 76.3152 265.817 74.652C264.153 72.9888 263.322 70.3503 263.322 66.7364V53.2768H269.359ZM288.437 76.5V53.2768H294.474L305.624 67.4756V53.2768H311.63V76.5H305.624L294.474 62.3012V76.5H288.437ZM328.225 63.5024H340.206C340.206 64.7344 340.155 65.8535 340.052 66.8596C339.949 67.8657 339.744 68.8 339.436 69.6624C339.005 70.8739 338.419 71.9519 337.68 72.8964C336.941 73.8204 336.068 74.6007 335.062 75.2372C334.077 75.8532 332.988 76.3255 331.797 76.654C330.607 76.9825 329.354 77.1468 328.04 77.1468C326.233 77.1468 324.58 76.8491 323.081 76.2536C321.603 75.6581 320.33 74.8265 319.262 73.7588C318.194 72.6705 317.363 71.3769 316.767 69.878C316.172 68.3585 315.874 66.6851 315.874 64.8576C315.874 63.0507 316.161 61.3977 316.736 59.8988C317.332 58.3793 318.163 57.0857 319.231 56.018C320.319 54.9503 321.623 54.1187 323.143 53.5232C324.662 52.9277 326.356 52.63 328.225 52.63C330.648 52.63 332.773 53.1536 334.6 54.2008C336.428 55.248 337.875 56.8701 338.943 59.0672L333.214 61.4388C332.68 60.1657 331.982 59.252 331.12 58.6976C330.278 58.1432 329.313 57.866 328.225 57.866C327.321 57.866 326.5 58.0405 325.761 58.3896C325.021 58.7181 324.385 59.2007 323.851 59.8372C323.338 60.4532 322.927 61.2027 322.619 62.0856C322.332 62.9685 322.188 63.9541 322.188 65.0424C322.188 66.028 322.311 66.9417 322.557 67.7836C322.824 68.6255 323.215 69.3544 323.728 69.9704C324.241 70.5864 324.878 71.0689 325.637 71.418C326.397 71.7465 327.28 71.9108 328.286 71.9108C328.882 71.9108 329.457 71.8492 330.011 71.726C330.565 71.5823 331.058 71.3667 331.489 71.0792C331.941 70.7712 332.311 70.3811 332.598 69.9088C332.886 69.4365 333.081 68.8616 333.183 68.184H328.225V63.5024ZM343.221 73.5432C343.221 73.0504 343.313 72.5884 343.498 72.1572C343.683 71.7055 343.939 71.3153 344.268 70.9868C344.596 70.6583 344.976 70.4016 345.407 70.2168C345.859 70.032 346.331 69.9396 346.824 69.9396C347.317 69.9396 347.779 70.032 348.21 70.2168C348.662 70.4016 349.052 70.6583 349.381 70.9868C349.709 71.3153 349.966 71.7055 350.151 72.1572C350.335 72.5884 350.428 73.0504 350.428 73.5432C350.428 74.036 350.335 74.5083 350.151 74.96C349.966 75.3912 349.709 75.7711 349.381 76.0996C349.052 76.4281 348.662 76.6848 348.21 76.8696C347.779 77.0544 347.317 77.1468 346.824 77.1468C346.331 77.1468 345.859 77.0544 345.407 76.8696C344.976 76.6848 344.596 76.4281 344.268 76.0996C343.939 75.7711 343.683 75.3912 343.498 74.96C343.313 74.5083 343.221 74.036 343.221 73.5432Z" fill="#0000FF"/>
<path d="M453.5 0.5H0.5V91.5H453.5V0.5Z" stroke="#0000FF"/>
<path d="M51.217 16.0366V57.9299C51.217 59.7333 51.217 61.2592 50.9406 62.7851C50.8024 64.311 50.3878 65.5595 49.9732 66.6692C49.2823 68.3339 48.3149 69.9985 47.2094 71.3857C45.9656 72.7729 44.5837 74.0214 43.0635 74.9924C41.4052 75.9634 39.7469 76.7958 37.8122 77.3507C35.8775 77.9055 33.8046 78.1829 31.7316 78.1829C25.2365 78.1829 20.1234 75.2698 15.9775 69.3049L26.2039 58.7622C26.4803 60.5656 27.033 61.9528 28.0004 63.0625C28.9678 64.1723 30.0733 64.7272 31.317 64.7272C34.2191 64.7272 35.7393 62.3689 35.7393 57.7912V16.1753H51.3552L51.217 16.0366Z" fill="#0000FF"/>
<path d="M97.7884 65.9756H75.5391L71.9461 76.5183H55.2246L78.0266 16.1753H95.0245L117.826 76.5183H101.105L97.512 65.9756H97.7884ZM93.6425 54.0457L86.5946 33.9314L79.5468 54.0457H93.5043H93.6425Z" fill="#0000FF"/>
</svg>
