<svg width="454" height="92" viewBox="0 0 454 92" fill="none" xmlns="http://www.w3.org/2000/svg">
<path d="M453.5 0.5H0.5V91.5H453.5V0.5Z" fill="white"/>
<path d="M409.122 73.5432C409.122 73.0504 409.214 72.5884 409.399 72.1572C409.584 71.7055 409.841 71.3153 410.169 70.9868C410.498 70.6583 410.878 70.4016 411.309 70.2168C411.761 70.032 412.233 69.9396 412.726 69.9396C413.218 69.9396 413.68 70.032 414.112 70.2168C414.563 70.4016 414.954 70.6583 415.282 70.9868C415.611 71.3153 415.867 71.7055 416.052 72.1572C416.237 72.5884 416.329 73.0504 416.329 73.5432C416.329 74.036 416.237 74.5083 416.052 74.96C415.867 75.3912 415.611 75.7711 415.282 76.0996C414.954 76.4281 414.563 76.6848 414.112 76.8696C413.68 77.0544 413.218 77.1468 412.726 77.1468C412.233 77.1468 411.761 77.0544 411.309 76.8696C410.878 76.6848 410.498 76.4281 410.169 76.0996C409.841 75.7711 409.584 75.3912 409.399 74.96C409.214 74.5083 409.122 74.036 409.122 73.5432Z" fill="#0000FF"/>
<path d="M394.126 63.5024H406.107C406.107 64.7344 406.056 65.8535 405.953 66.8596C405.85 67.8657 405.645 68.8 405.337 69.6624C404.906 70.8739 404.32 71.9519 403.581 72.8964C402.842 73.8204 401.969 74.6007 400.963 75.2372C399.978 75.8532 398.889 76.3255 397.698 76.654C396.508 76.9825 395.255 77.1468 393.941 77.1468C392.134 77.1468 390.481 76.8491 388.982 76.2536C387.504 75.6581 386.231 74.8265 385.163 73.7588C384.095 72.6705 383.264 71.3769 382.668 69.878C382.073 68.3585 381.775 66.6851 381.775 64.8576C381.775 63.0507 382.062 61.3977 382.637 59.8988C383.233 58.3793 384.064 57.0857 385.132 56.018C386.22 54.9503 387.524 54.1187 389.044 53.5232C390.563 52.9277 392.257 52.63 394.126 52.63C396.549 52.63 398.674 53.1536 400.501 54.2008C402.329 55.248 403.776 56.8701 404.844 59.0672L399.115 61.4388C398.581 60.1657 397.883 59.252 397.021 58.6976C396.179 58.1432 395.214 57.866 394.126 57.866C393.222 57.866 392.401 58.0405 391.662 58.3896C390.923 58.7181 390.286 59.2007 389.752 59.8372C389.239 60.4532 388.828 61.2027 388.52 62.0856C388.233 62.9685 388.089 63.9541 388.089 65.0424C388.089 66.028 388.212 66.9417 388.458 67.7836C388.725 68.6255 389.116 69.3544 389.629 69.9704C390.142 70.5864 390.779 71.0689 391.539 71.418C392.298 71.7465 393.181 71.9108 394.187 71.9108C394.783 71.9108 395.358 71.8492 395.912 71.726C396.467 71.5823 396.959 71.3667 397.391 71.0792C397.842 70.7712 398.212 70.3811 398.499 69.9088C398.787 69.4365 398.982 68.8616 399.085 68.184H394.126V63.5024Z" fill="#0000FF"/>
<path d="M354.338 76.5V53.2768H360.375L371.525 67.4756V53.2768H377.531V76.5H371.525L360.375 62.3012V76.5H354.338Z" fill="#0000FF"/>
<path d="M335.26 53.2768V65.9048C335.26 66.5824 335.28 67.2805 335.322 67.9992C335.383 68.6973 335.537 69.3339 335.784 69.9088C336.05 70.4837 336.461 70.956 337.016 71.3256C337.57 71.6747 338.35 71.8492 339.356 71.8492C340.362 71.8492 341.132 71.6747 341.666 71.3256C342.221 70.956 342.631 70.4837 342.898 69.9088C343.165 69.3339 343.319 68.6973 343.36 67.9992C343.422 67.2805 343.453 66.5824 343.453 65.9048V53.2768H349.459V66.7364C349.459 70.3503 348.627 72.9888 346.964 74.652C345.321 76.3152 342.785 77.1468 339.356 77.1468C335.927 77.1468 333.381 76.3152 331.718 74.652C330.055 72.9888 329.223 70.3503 329.223 66.7364V53.2768H335.26Z" fill="#0000FF"/>
<path d="M301.16 76.5V53.2768H307.197L318.347 67.4756V53.2768H324.353V76.5H318.347L307.197 62.3012V76.5H301.16Z" fill="#0000FF"/>
<path d="M285.363 63.5024H297.345C297.345 64.7344 297.293 65.8535 297.191 66.8596C297.088 67.8657 296.883 68.8 296.575 69.6624C296.143 70.8739 295.558 71.9519 294.819 72.8964C294.08 73.8204 293.207 74.6007 292.201 75.2372C291.215 75.8532 290.127 76.3255 288.936 76.654C287.745 76.9825 286.493 77.1468 285.179 77.1468C283.372 77.1468 281.719 76.8491 280.22 76.2536C278.741 75.6581 277.468 74.8265 276.401 73.7588C275.333 72.6705 274.501 71.3769 273.906 69.878C273.31 68.3585 273.013 66.6851 273.013 64.8576C273.013 63.0507 273.3 61.3977 273.875 59.8988C274.471 58.3793 275.302 57.0857 276.37 56.018C277.458 54.9503 278.762 54.1187 280.281 53.5232C281.801 52.9277 283.495 52.63 285.363 52.63C287.786 52.63 289.912 53.1536 291.739 54.2008C293.567 55.248 295.014 56.8701 296.082 59.0672L290.353 61.4388C289.819 60.1657 289.121 59.252 288.259 58.6976C287.417 58.1432 286.452 57.866 285.363 57.866C284.46 57.866 283.639 58.0405 282.899 58.3896C282.16 58.7181 281.524 59.2007 280.99 59.8372C280.477 60.4532 280.066 61.2027 279.758 62.0856C279.47 62.9685 279.327 63.9541 279.327 65.0424C279.327 66.028 279.45 66.9417 279.696 67.7836C279.963 68.6255 280.353 69.3544 280.867 69.9704C281.38 70.5864 282.017 71.0689 282.776 71.418C283.536 71.7465 284.419 71.9108 285.425 71.9108C286.021 71.9108 286.595 71.8492 287.15 71.726C287.704 71.5823 288.197 71.3667 288.628 71.0792C289.08 70.7712 289.45 70.3811 289.737 69.9088C290.025 69.4365 290.22 68.8616 290.322 68.184H285.363V63.5024Z" fill="#0000FF"/>
<path d="M269.707 58.3896H262.531V62.2704H269.307V67.3832H262.531V71.3872H269.707V76.5H256.494V53.2768H269.707V58.3896Z" fill="#0000FF"/>
<path d="M240.697 63.5024H252.679C252.679 64.7344 252.627 65.8535 252.525 66.8596C252.422 67.8657 252.217 68.8 251.909 69.6624C251.477 70.8739 250.892 71.9519 250.153 72.8964C249.414 73.8204 248.541 74.6007 247.535 75.2372C246.549 75.8532 245.461 76.3255 244.27 76.654C243.079 76.9825 241.827 77.1468 240.513 77.1468C238.706 77.1468 237.053 76.8491 235.554 76.2536C234.075 75.6581 232.802 74.8265 231.735 73.7588C230.667 72.6705 229.835 71.3769 229.24 69.878C228.644 68.3585 228.347 66.6851 228.347 64.8576C228.347 63.0507 228.634 61.3977 229.209 59.8988C229.805 58.3793 230.636 57.0857 231.704 56.018C232.792 54.9503 234.096 54.1187 235.615 53.5232C237.135 52.9277 238.829 52.63 240.697 52.63C243.12 52.63 245.246 53.1536 247.073 54.2008C248.901 55.248 250.348 56.8701 251.416 59.0672L245.687 61.4388C245.153 60.1657 244.455 59.252 243.593 58.6976C242.751 58.1432 241.786 57.866 240.697 57.866C239.794 57.866 238.973 58.0405 238.233 58.3896C237.494 58.7181 236.858 59.2007 236.324 59.8372C235.811 60.4532 235.4 61.2027 235.092 62.0856C234.804 62.9685 234.661 63.9541 234.661 65.0424C234.661 66.028 234.784 66.9417 235.03 67.7836C235.297 68.6255 235.687 69.3544 236.201 69.9704C236.714 70.5864 237.351 71.0689 238.11 71.418C238.87 71.7465 239.753 71.9108 240.759 71.9108C241.355 71.9108 241.929 71.8492 242.484 71.726C243.038 71.5823 243.531 71.3667 243.962 71.0792C244.414 70.7712 244.784 70.3811 245.071 69.9088C245.359 69.4365 245.554 68.8616 245.656 68.184H240.697V63.5024Z" fill="#0000FF"/>
<path d="M225.041 58.3896H217.865V62.2704H224.641V67.3832H217.865V71.3872H225.041V76.5H211.828V53.2768H225.041V58.3896Z" fill="#0000FF"/>
<path d="M196.54 71.8184H197.864C199.384 71.8184 200.472 71.6233 201.129 71.2332C201.786 70.8431 202.115 70.2168 202.115 69.3544C202.115 68.492 201.786 67.8657 201.129 67.4756C200.472 67.0855 199.384 66.8904 197.864 66.8904H196.54V71.8184ZM196.54 62.3936H197.649C199.538 62.3936 200.482 61.6441 200.482 60.1452C200.482 58.6463 199.538 57.8968 197.649 57.8968H196.54V62.3936ZM190.503 53.2768H199.497C201.632 53.2768 203.254 53.7901 204.363 54.8168C205.472 55.8435 206.026 57.3219 206.026 59.252C206.026 60.4224 205.811 61.3977 205.379 62.178C204.969 62.9377 204.332 63.5845 203.47 64.1184C204.332 64.2827 205.061 64.5393 205.657 64.8884C206.273 65.2169 206.765 65.6276 207.135 66.1204C207.525 66.6132 207.802 67.1676 207.967 67.7836C208.131 68.3996 208.213 69.0567 208.213 69.7548C208.213 70.8431 208.018 71.8081 207.628 72.65C207.258 73.4919 206.724 74.2003 206.026 74.7752C205.349 75.3501 204.517 75.7813 203.531 76.0688C202.546 76.3563 201.437 76.5 200.205 76.5H190.503V53.2768Z" fill="#0000FF"/>
<path d="M160.957 53.2768V65.9048C160.957 66.5824 160.978 67.2805 161.019 67.9992C161.08 68.6973 161.234 69.3339 161.481 69.9088C161.748 70.4837 162.158 70.956 162.713 71.3256C163.267 71.6747 164.047 71.8492 165.054 71.8492C166.06 71.8492 166.83 71.6747 167.364 71.3256C167.918 70.956 168.329 70.4837 168.596 69.9088C168.863 69.3339 169.017 68.6973 169.058 67.9992C169.119 67.2805 169.15 66.5824 169.15 65.9048V53.2768H175.156V66.7364C175.156 70.3503 174.324 72.9888 172.661 74.652C171.019 76.3152 168.483 77.1468 165.054 77.1468C161.625 77.1468 159.078 76.3152 157.415 74.652C155.752 72.9888 154.92 70.3503 154.92 66.7364V53.2768H160.957Z" fill="#0000FF"/>
<path d="M141.095 71.3872H150.828V76.5H130.962L141.958 58.3896H132.81V53.2768H152.029L141.095 71.3872Z" fill="#0000FF"/>
<path d="M430.387 36.5432C430.387 36.0504 430.48 35.5884 430.664 35.1572C430.849 34.7055 431.106 34.3153 431.434 33.9868C431.763 33.6583 432.143 33.4016 432.574 33.2168C433.026 33.032 433.498 32.9396 433.991 32.9396C434.484 32.9396 434.946 33.032 435.377 33.2168C435.829 33.4016 436.219 33.6583 436.547 33.9868C436.876 34.3153 437.132 34.7055 437.317 35.1572C437.502 35.5884 437.594 36.0504 437.594 36.5432C437.594 37.036 437.502 37.5083 437.317 37.96C437.132 38.3912 436.876 38.7711 436.547 39.0996C436.219 39.4281 435.829 39.6848 435.377 39.8696C434.946 40.0544 434.484 40.1468 433.991 40.1468C433.498 40.1468 433.026 40.0544 432.574 39.8696C432.143 39.6848 431.763 39.4281 431.434 39.0996C431.106 38.7711 430.849 38.3912 430.664 37.96C430.48 37.5083 430.387 37.036 430.387 36.5432Z" fill="#0000FF"/>
<path d="M424.027 22.2212C423.37 21.6873 422.713 21.2972 422.056 21.0508C421.399 20.7839 420.763 20.6504 420.147 20.6504C419.366 20.6504 418.73 20.8352 418.237 21.2048C417.744 21.5744 417.498 22.0569 417.498 22.6524C417.498 23.0631 417.621 23.4019 417.867 23.6688C418.114 23.9357 418.432 24.1719 418.822 24.3772C419.233 24.562 419.685 24.7263 420.177 24.87C420.691 25.0137 421.194 25.1677 421.687 25.332C423.658 25.9891 425.095 26.872 425.999 27.9808C426.923 29.0691 427.385 30.4961 427.385 32.262C427.385 33.4529 427.179 34.5309 426.769 35.496C426.378 36.4611 425.793 37.2927 425.013 37.9908C424.253 38.6684 423.309 39.192 422.179 39.5616C421.071 39.9517 419.808 40.1468 418.391 40.1468C415.455 40.1468 412.734 39.2741 410.229 37.5288L412.816 32.6624C413.72 33.4632 414.613 34.0587 415.496 34.4488C416.379 34.8389 417.251 35.034 418.114 35.034C419.099 35.034 419.828 34.8081 420.301 34.3564C420.793 33.9047 421.04 33.3913 421.04 32.8164C421.04 32.4673 420.978 32.1696 420.855 31.9232C420.732 31.6563 420.526 31.4201 420.239 31.2148C419.952 30.9889 419.572 30.7836 419.099 30.5988C418.648 30.414 418.093 30.2087 417.436 29.9828C416.656 29.7364 415.886 29.4695 415.126 29.182C414.387 28.874 413.72 28.4736 413.124 27.9808C412.549 27.488 412.077 26.872 411.707 26.1328C411.358 25.3731 411.184 24.4183 411.184 23.2684C411.184 22.1185 411.369 21.0816 411.738 20.1576C412.128 19.2131 412.662 18.4123 413.34 17.7552C414.038 17.0776 414.88 16.554 415.865 16.1844C416.872 15.8148 417.991 15.63 419.223 15.63C420.372 15.63 421.574 15.7943 422.826 16.1228C424.079 16.4308 425.28 16.8928 426.43 17.5088L424.027 22.2212Z" fill="#0000FF"/>
<path d="M392.198 16.2768V28.9048C392.198 29.5824 392.218 30.2805 392.26 30.9992C392.321 31.6973 392.475 32.3339 392.722 32.9088C392.988 33.4837 393.399 33.956 393.954 34.3256C394.508 34.6747 395.288 34.8492 396.294 34.8492C397.3 34.8492 398.07 34.6747 398.604 34.3256C399.159 33.956 399.569 33.4837 399.836 32.9088C400.103 32.3339 400.257 31.6973 400.298 30.9992C400.36 30.2805 400.391 29.5824 400.391 28.9048V16.2768H406.397V29.7364C406.397 33.3503 405.565 35.9888 403.902 37.652C402.259 39.3152 399.723 40.1468 396.294 40.1468C392.865 40.1468 390.319 39.3152 388.656 37.652C386.993 35.9888 386.161 33.3503 386.161 29.7364V16.2768H392.198Z" fill="#0000FF"/>
<path d="M374.757 30.876L372.046 23.1452L369.336 30.876H374.757ZM376.358 35.4652H367.734L366.348 39.5H359.911L368.751 16.2768H375.342L384.182 39.5H377.744L376.358 35.4652Z" fill="#0000FF"/>
<path d="M342.508 25.2396H351.225V16.2768H357.262V39.5H351.225V29.9212H342.508V39.5H336.472V16.2768H342.508V25.2396Z" fill="#0000FF"/>
<path d="M328.828 21.3896V39.5H322.791V21.3896H317.833V16.2768H333.787V21.3896H328.828Z" fill="#0000FF"/>
<path d="M312.708 22.2212C312.051 21.6873 311.394 21.2972 310.737 21.0508C310.08 20.7839 309.443 20.6504 308.827 20.6504C308.047 20.6504 307.41 20.8352 306.918 21.2048C306.425 21.5744 306.178 22.0569 306.178 22.6524C306.178 23.0631 306.302 23.4019 306.548 23.6688C306.794 23.9357 307.113 24.1719 307.503 24.3772C307.914 24.562 308.365 24.7263 308.858 24.87C309.371 25.0137 309.874 25.1677 310.367 25.332C312.338 25.9891 313.776 26.872 314.679 27.9808C315.603 29.0691 316.065 30.4961 316.065 32.262C316.065 33.4529 315.86 34.5309 315.449 35.496C315.059 36.4611 314.474 37.2927 313.694 37.9908C312.934 38.6684 311.989 39.192 310.86 39.5616C309.751 39.9517 308.488 40.1468 307.072 40.1468C304.135 40.1468 301.415 39.2741 298.91 37.5288L301.497 32.6624C302.4 33.4632 303.294 34.0587 304.176 34.4488C305.059 34.8389 305.932 35.034 306.794 35.034C307.78 35.034 308.509 34.8081 308.981 34.3564C309.474 33.9047 309.72 33.3913 309.72 32.8164C309.72 32.4673 309.659 32.1696 309.536 31.9232C309.412 31.6563 309.207 31.4201 308.92 31.2148C308.632 30.9889 308.252 30.7836 307.78 30.5988C307.328 30.414 306.774 30.2087 306.117 29.9828C305.337 29.7364 304.567 29.4695 303.807 29.182C303.068 28.874 302.4 28.4736 301.805 27.9808C301.23 27.488 300.758 26.872 300.388 26.1328C300.039 25.3731 299.864 24.4183 299.864 23.2684C299.864 22.1185 300.049 21.0816 300.419 20.1576C300.809 19.2131 301.343 18.4123 302.02 17.7552C302.719 17.0776 303.56 16.554 304.546 16.1844C305.552 15.8148 306.671 15.63 307.903 15.63C309.053 15.63 310.254 15.7943 311.507 16.1228C312.759 16.4308 313.961 16.8928 315.11 17.5088L312.708 22.2212Z" fill="#0000FF"/>
<path d="M271.894 39.5V16.2768H277.931L289.08 30.4756V16.2768H295.086V39.5H289.08L277.931 25.3012V39.5H271.894Z" fill="#0000FF"/>
<path d="M252.816 16.2768V28.9048C252.816 29.5824 252.836 30.2805 252.877 30.9992C252.939 31.6973 253.093 32.3339 253.339 32.9088C253.606 33.4837 254.017 33.956 254.571 34.3256C255.126 34.6747 255.906 34.8492 256.912 34.8492C257.918 34.8492 258.688 34.6747 259.222 34.3256C259.776 33.956 260.187 33.4837 260.454 32.9088C260.721 32.3339 260.875 31.6973 260.916 30.9992C260.978 30.2805 261.008 29.5824 261.008 28.9048V16.2768H267.014V29.7364C267.014 33.3503 266.183 35.9888 264.52 37.652C262.877 39.3152 260.341 40.1468 256.912 40.1468C253.483 40.1468 250.937 39.3152 249.274 37.652C247.61 35.9888 246.779 33.3503 246.779 29.7364V16.2768H252.816Z" fill="#0000FF"/>
<path d="M228.423 25.8556L235.784 16.2768H243.237L234.028 27.2724L244.1 39.5H236.277L228.423 29.4284V39.5H222.386V16.2768H228.423V25.8556Z" fill="#0000FF"/>
<path d="M178.988 39.5L182.931 16.2768H188.906L193.557 28.6584L198.177 16.2768H204.152L208.094 39.5H202.088L200.086 26.1328L194.604 39.5H192.201L186.996 26.1328L184.994 39.5H178.988Z" fill="#0000FF"/>
<path d="M160.957 16.2768V28.9048C160.957 29.5824 160.978 30.2805 161.019 30.9992C161.08 31.6973 161.234 32.3339 161.481 32.9088C161.748 33.4837 162.158 33.956 162.713 34.3256C163.267 34.6747 164.047 34.8492 165.054 34.8492C166.06 34.8492 166.83 34.6747 167.364 34.3256C167.918 33.956 168.329 33.4837 168.596 32.9088C168.863 32.3339 169.017 31.6973 169.058 30.9992C169.119 30.2805 169.15 29.5824 169.15 28.9048V16.2768H175.156V29.7364C175.156 33.3503 174.324 35.9888 172.661 37.652C171.019 39.3152 168.483 40.1468 165.054 40.1468C161.625 40.1468 159.078 39.3152 157.415 37.652C155.752 35.9888 154.92 33.3503 154.92 29.7364V16.2768H160.957Z" fill="#0000FF"/>
<path d="M141.095 34.3872H150.828V39.5H130.962L141.958 21.3896H132.81V16.2768H152.029L141.095 34.3872Z" fill="#0000FF"/>
<path d="M453.5 0.5H0.5V91.5H453.5V0.5Z" stroke="#0000FF"/>
<path d="M51.217 16.0366V57.9299C51.217 59.7332 51.217 61.2592 50.9406 62.7851C50.8024 64.311 50.3878 65.5595 49.9732 66.6692C49.2823 68.3338 48.3149 69.9985 47.2094 71.3857C45.9656 72.7729 44.5837 74.0213 43.0635 74.9924C41.4052 75.9634 39.7469 76.7957 37.8122 77.3506C35.8775 77.9055 33.8046 78.1829 31.7316 78.1829C25.2365 78.1829 20.1234 75.2698 15.9775 69.3049L26.2039 58.7622C26.4803 60.5655 27.033 61.9527 28.0004 63.0625C28.9678 64.1722 30.0733 64.7271 31.317 64.7271C34.2191 64.7271 35.7393 62.3689 35.7393 57.7912V16.1753H51.3552L51.217 16.0366Z" fill="#0000FF"/>
<path d="M97.7884 65.9756H75.5391L71.9461 76.5183H55.2246L78.0266 16.1753H95.0245L117.826 76.5183H101.105L97.512 65.9756H97.7884ZM93.6425 54.0457L86.5946 33.9314L79.5468 54.0457H93.5043H93.6425Z" fill="#0000FF"/>
</svg>
