<svg width="454" height="92" viewBox="0 0 454 92" fill="none" xmlns="http://www.w3.org/2000/svg">
<path d="M453.5 0.5H0.5V91.5H453.5V0.5Z" fill="white"/>
<path d="M398.023 73.5432C398.023 73.0504 398.115 72.5884 398.3 72.1572C398.485 71.7054 398.742 71.3153 399.07 70.9868C399.399 70.6582 399.779 70.4016 400.21 70.2168C400.662 70.032 401.134 69.9396 401.627 69.9396C402.119 69.9396 402.581 70.032 403.013 70.2168C403.464 70.4016 403.854 70.6582 404.183 70.9868C404.511 71.3153 404.768 71.7054 404.953 72.1572C405.138 72.5884 405.23 73.0504 405.23 73.5432C405.23 74.036 405.138 74.5082 404.953 74.96C404.768 75.3912 404.511 75.771 404.183 76.0996C403.854 76.4281 403.464 76.6848 403.013 76.8696C402.581 77.0544 402.119 77.1468 401.627 77.1468C401.134 77.1468 400.662 77.0544 400.21 76.8696C399.779 76.6848 399.399 76.4281 399.07 76.0996C398.742 75.771 398.485 75.3912 398.3 74.96C398.115 74.5082 398.023 74.036 398.023 73.5432Z" fill="#0000FF"/>
<path d="M394.472 58.3896H387.295V62.2704H394.071V67.3832H387.295V71.3872H394.472V76.5H381.258V53.2768H394.472V58.3896Z" fill="#0000FF"/>
<path d="M374.098 59.2212C373.441 58.6873 372.784 58.2972 372.127 58.0508C371.469 57.7839 370.833 57.6504 370.217 57.6504C369.437 57.6504 368.8 57.8352 368.307 58.2048C367.815 58.5744 367.568 59.0569 367.568 59.6524C367.568 60.0631 367.691 60.4019 367.938 60.6688C368.184 60.9357 368.502 61.1719 368.893 61.3772C369.303 61.562 369.755 61.7263 370.248 61.87C370.761 62.0137 371.264 62.1677 371.757 62.332C373.728 62.9891 375.165 63.872 376.069 64.9808C376.993 66.0691 377.455 67.4961 377.455 69.262C377.455 70.4529 377.25 71.5309 376.839 72.496C376.449 73.4611 375.864 74.2927 375.083 74.9908C374.324 75.6684 373.379 76.192 372.25 76.5616C371.141 76.9517 369.878 77.1468 368.461 77.1468C365.525 77.1468 362.804 76.2741 360.299 74.5288L362.887 69.6624C363.79 70.4632 364.683 71.0587 365.566 71.4488C366.449 71.8389 367.322 72.034 368.184 72.034C369.17 72.034 369.899 71.8081 370.371 71.3564C370.864 70.9047 371.11 70.3913 371.11 69.8164C371.11 69.4673 371.049 69.1696 370.925 68.9232C370.802 68.6563 370.597 68.4201 370.309 68.2148C370.022 67.9889 369.642 67.7836 369.17 67.5988C368.718 67.414 368.164 67.2087 367.507 66.9828C366.726 66.7364 365.956 66.4695 365.197 66.182C364.457 65.874 363.79 65.4736 363.195 64.9808C362.62 64.488 362.147 63.872 361.778 63.1328C361.429 62.3731 361.254 61.4183 361.254 60.2684C361.254 59.1185 361.439 58.0816 361.809 57.1576C362.199 56.2131 362.733 55.4123 363.41 54.7552C364.108 54.0776 364.95 53.554 365.936 53.1844C366.942 52.8148 368.061 52.63 369.293 52.63C370.443 52.63 371.644 52.7943 372.897 53.1228C374.149 53.4308 375.35 53.8928 376.5 54.5088L374.098 59.2212Z" fill="#0000FF"/>
<path d="M354.186 59.2212C353.529 58.6873 352.872 58.2972 352.215 58.0508C351.558 57.7839 350.921 57.6504 350.305 57.6504C349.525 57.6504 348.888 57.8352 348.396 58.2048C347.903 58.5744 347.656 59.0569 347.656 59.6524C347.656 60.0631 347.78 60.4019 348.026 60.6688C348.272 60.9357 348.591 61.1719 348.981 61.3772C349.392 61.562 349.843 61.7263 350.336 61.87C350.849 62.0137 351.352 62.1677 351.845 62.332C353.816 62.9891 355.254 63.872 356.157 64.9808C357.081 66.0691 357.543 67.4961 357.543 69.262C357.543 70.4529 357.338 71.5309 356.927 72.496C356.537 73.4611 355.952 74.2927 355.172 74.9908C354.412 75.6684 353.467 76.192 352.338 76.5616C351.229 76.9517 349.966 77.1468 348.55 77.1468C345.613 77.1468 342.893 76.2741 340.388 74.5288L342.975 69.6624C343.878 70.4632 344.772 71.0587 345.654 71.4488C346.537 71.8389 347.41 72.034 348.272 72.034C349.258 72.034 349.987 71.8081 350.459 71.3564C350.952 70.9047 351.199 70.3913 351.199 69.8164C351.199 69.4673 351.137 69.1696 351.014 68.9232C350.89 68.6563 350.685 68.4201 350.398 68.2148C350.11 67.9889 349.73 67.7836 349.258 67.5988C348.806 67.414 348.252 67.2087 347.595 66.9828C346.815 66.7364 346.045 66.4695 345.285 66.182C344.546 65.874 343.878 65.4736 343.283 64.9808C342.708 64.488 342.236 63.872 341.866 63.1328C341.517 62.3731 341.342 61.4183 341.342 60.2684C341.342 59.1185 341.527 58.0816 341.897 57.1576C342.287 56.2131 342.821 55.4123 343.498 54.7552C344.197 54.0776 345.038 53.554 346.024 53.1844C347.03 52.8148 348.149 52.63 349.381 52.63C350.531 52.63 351.732 52.7943 352.985 53.1228C354.237 53.4308 355.439 53.8928 356.589 54.5088L354.186 59.2212Z" fill="#0000FF"/>
<path d="M329.369 67.876L326.658 60.1452L323.948 67.876H329.369ZM330.97 72.4652H322.346L320.96 76.5H314.523L323.363 53.2768H329.954L338.793 76.5H332.356L330.97 72.4652Z" fill="#0000FF"/>
<path d="M305.423 53.2768V71.3872H312.661V76.5H299.386V53.2768H305.423Z" fill="#0000FF"/>
<path d="M281.029 62.8556L288.39 53.2768H295.844L286.635 64.2724L296.706 76.5H288.883L281.029 66.4284V76.5H274.992V53.2768H281.029V62.8556Z" fill="#0000FF"/>
<path d="M267.348 58.3896V76.5H261.311V58.3896H256.353V53.2768H272.307V58.3896H267.348Z" fill="#0000FF"/>
<path d="M249.417 53.2768V71.3872H256.655V76.5H243.38V53.2768H249.417Z" fill="#0000FF"/>
<path d="M239.028 58.3896H231.851V62.2704H238.627V67.3832H231.851V71.3872H239.028V76.5H225.814V53.2768H239.028V58.3896Z" fill="#0000FF"/>
<path d="M194.383 53.2768L198.387 68.2764L203.315 53.2768H208.12L213.048 68.2764L217.052 53.2768H223.366L216.436 76.5H210.276L205.718 63.0404L201.159 76.5H194.999L188.069 53.2768H194.383Z" fill="#0000FF"/>
<path d="M160.957 53.2768V65.9048C160.957 66.5824 160.978 67.2805 161.019 67.9992C161.08 68.6973 161.234 69.3339 161.481 69.9088C161.748 70.4837 162.158 70.956 162.713 71.3256C163.267 71.6747 164.047 71.8492 165.054 71.8492C166.06 71.8492 166.83 71.6747 167.364 71.3256C167.918 70.956 168.329 70.4837 168.596 69.9088C168.863 69.3339 169.017 68.6973 169.058 67.9992C169.119 67.2805 169.15 66.5824 169.15 65.9048V53.2768H175.156V66.7364C175.156 70.3503 174.324 72.9888 172.661 74.652C171.019 76.3152 168.483 77.1468 165.054 77.1468C161.625 77.1468 159.078 76.3152 157.415 74.652C155.752 72.9888 154.92 70.3503 154.92 66.7364V53.2768H160.957Z" fill="#0000FF"/>
<path d="M141.095 71.3872H150.828V76.5H130.962L141.958 58.3896H132.81V53.2768H152.029L141.095 71.3872Z" fill="#0000FF"/>
<path d="M430.387 36.5432C430.387 36.0504 430.48 35.5884 430.664 35.1572C430.849 34.7054 431.106 34.3153 431.434 33.9868C431.763 33.6582 432.143 33.4016 432.574 33.2168C433.026 33.032 433.498 32.9396 433.991 32.9396C434.484 32.9396 434.946 33.032 435.377 33.2168C435.829 33.4016 436.219 33.6582 436.547 33.9868C436.876 34.3153 437.132 34.7054 437.317 35.1572C437.502 35.5884 437.594 36.0504 437.594 36.5432C437.594 37.036 437.502 37.5082 437.317 37.96C437.132 38.3912 436.876 38.771 436.547 39.0996C436.219 39.4281 435.829 39.6848 435.377 39.8696C434.946 40.0544 434.484 40.1468 433.991 40.1468C433.498 40.1468 433.026 40.0544 432.574 39.8696C432.143 39.6848 431.763 39.4281 431.434 39.0996C431.106 38.771 430.849 38.3912 430.664 37.96C430.48 37.5082 430.387 37.036 430.387 36.5432Z" fill="#0000FF"/>
<path d="M424.027 22.2212C423.37 21.6873 422.713 21.2972 422.056 21.0508C421.399 20.7839 420.763 20.6504 420.147 20.6504C419.366 20.6504 418.73 20.8352 418.237 21.2048C417.744 21.5744 417.498 22.0569 417.498 22.6524C417.498 23.0631 417.621 23.4019 417.867 23.6688C418.114 23.9357 418.432 24.1719 418.822 24.3772C419.233 24.562 419.685 24.7263 420.177 24.87C420.691 25.0137 421.194 25.1677 421.687 25.332C423.658 25.9891 425.095 26.872 425.999 27.9808C426.923 29.0691 427.385 30.4961 427.385 32.262C427.385 33.4529 427.179 34.5309 426.769 35.496C426.378 36.4611 425.793 37.2927 425.013 37.9908C424.253 38.6684 423.309 39.192 422.179 39.5616C421.071 39.9517 419.808 40.1468 418.391 40.1468C415.455 40.1468 412.734 39.2741 410.229 37.5288L412.816 32.6624C413.72 33.4632 414.613 34.0587 415.496 34.4488C416.379 34.8389 417.251 35.034 418.114 35.034C419.099 35.034 419.828 34.8081 420.301 34.3564C420.793 33.9047 421.04 33.3913 421.04 32.8164C421.04 32.4673 420.978 32.1696 420.855 31.9232C420.732 31.6563 420.526 31.4201 420.239 31.2148C419.952 30.9889 419.572 30.7836 419.099 30.5988C418.648 30.414 418.093 30.2087 417.436 29.9828C416.656 29.7364 415.886 29.4695 415.126 29.182C414.387 28.874 413.72 28.4736 413.124 27.9808C412.549 27.488 412.077 26.872 411.707 26.1328C411.358 25.3731 411.184 24.4183 411.184 23.2684C411.184 22.1185 411.369 21.0816 411.738 20.1576C412.128 19.2131 412.662 18.4123 413.34 17.7552C414.038 17.0776 414.88 16.554 415.865 16.1844C416.872 15.8148 417.991 15.63 419.223 15.63C420.372 15.63 421.574 15.7943 422.826 16.1228C424.079 16.4308 425.28 16.8928 426.43 17.5088L424.027 22.2212Z" fill="#0000FF"/>
<path d="M392.198 16.2768V28.9048C392.198 29.5824 392.218 30.2805 392.26 30.9992C392.321 31.6973 392.475 32.3339 392.722 32.9088C392.988 33.4837 393.399 33.956 393.954 34.3256C394.508 34.6747 395.288 34.8492 396.294 34.8492C397.3 34.8492 398.07 34.6747 398.604 34.3256C399.159 33.956 399.569 33.4837 399.836 32.9088C400.103 32.3339 400.257 31.6973 400.298 30.9992C400.36 30.2805 400.391 29.5824 400.391 28.9048V16.2768H406.397V29.7364C406.397 33.3503 405.565 35.9888 403.902 37.652C402.259 39.3152 399.723 40.1468 396.294 40.1468C392.865 40.1468 390.319 39.3152 388.656 37.652C386.993 35.9888 386.161 33.3503 386.161 29.7364V16.2768H392.198Z" fill="#0000FF"/>
<path d="M374.757 30.876L372.046 23.1452L369.336 30.876H374.757ZM376.358 35.4652H367.734L366.348 39.5H359.911L368.751 16.2768H375.342L384.182 39.5H377.744L376.358 35.4652Z" fill="#0000FF"/>
<path d="M342.508 25.2396H351.225V16.2768H357.262V39.5H351.225V29.9212H342.508V39.5H336.472V16.2768H342.508V25.2396Z" fill="#0000FF"/>
<path d="M328.828 21.3896V39.5H322.791V21.3896H317.833V16.2768H333.787V21.3896H328.828Z" fill="#0000FF"/>
<path d="M312.708 22.2212C312.051 21.6873 311.394 21.2972 310.737 21.0508C310.08 20.7839 309.443 20.6504 308.827 20.6504C308.047 20.6504 307.41 20.8352 306.918 21.2048C306.425 21.5744 306.178 22.0569 306.178 22.6524C306.178 23.0631 306.302 23.4019 306.548 23.6688C306.794 23.9357 307.113 24.1719 307.503 24.3772C307.914 24.562 308.365 24.7263 308.858 24.87C309.371 25.0137 309.874 25.1677 310.367 25.332C312.338 25.9891 313.776 26.872 314.679 27.9808C315.603 29.0691 316.065 30.4961 316.065 32.262C316.065 33.4529 315.86 34.5309 315.449 35.496C315.059 36.4611 314.474 37.2927 313.694 37.9908C312.934 38.6684 311.989 39.192 310.86 39.5616C309.751 39.9517 308.488 40.1468 307.072 40.1468C304.135 40.1468 301.415 39.2741 298.91 37.5288L301.497 32.6624C302.4 33.4632 303.294 34.0587 304.176 34.4488C305.059 34.8389 305.932 35.034 306.794 35.034C307.78 35.034 308.509 34.8081 308.981 34.3564C309.474 33.9047 309.72 33.3913 309.72 32.8164C309.72 32.4673 309.659 32.1696 309.536 31.9232C309.412 31.6563 309.207 31.4201 308.92 31.2148C308.632 30.9889 308.252 30.7836 307.78 30.5988C307.328 30.414 306.774 30.2087 306.117 29.9828C305.337 29.7364 304.567 29.4695 303.807 29.182C303.068 28.874 302.4 28.4736 301.805 27.9808C301.23 27.488 300.758 26.872 300.388 26.1328C300.039 25.3731 299.864 24.4183 299.864 23.2684C299.864 22.1185 300.049 21.0816 300.419 20.1576C300.809 19.2131 301.343 18.4123 302.02 17.7552C302.719 17.0776 303.56 16.554 304.546 16.1844C305.552 15.8148 306.671 15.63 307.903 15.63C309.053 15.63 310.254 15.7943 311.507 16.1228C312.759 16.4308 313.961 16.8928 315.11 17.5088L312.708 22.2212Z" fill="#0000FF"/>
<path d="M271.894 39.5V16.2768H277.931L289.08 30.4756V16.2768H295.086V39.5H289.08L277.931 25.3012V39.5H271.894Z" fill="#0000FF"/>
<path d="M252.816 16.2768V28.9048C252.816 29.5824 252.836 30.2805 252.877 30.9992C252.939 31.6973 253.093 32.3339 253.339 32.9088C253.606 33.4837 254.017 33.956 254.571 34.3256C255.126 34.6747 255.906 34.8492 256.912 34.8492C257.918 34.8492 258.688 34.6747 259.222 34.3256C259.776 33.956 260.187 33.4837 260.454 32.9088C260.721 32.3339 260.875 31.6973 260.916 30.9992C260.978 30.2805 261.008 29.5824 261.008 28.9048V16.2768H267.014V29.7364C267.014 33.3503 266.183 35.9888 264.52 37.652C262.877 39.3152 260.341 40.1468 256.912 40.1468C253.483 40.1468 250.937 39.3152 249.274 37.652C247.61 35.9888 246.779 33.3503 246.779 29.7364V16.2768H252.816Z" fill="#0000FF"/>
<path d="M228.423 25.8556L235.784 16.2768H243.237L234.028 27.2724L244.1 39.5H236.277L228.423 29.4284V39.5H222.386V16.2768H228.423V25.8556Z" fill="#0000FF"/>
<path d="M178.988 39.5L182.931 16.2768H188.906L193.557 28.6584L198.177 16.2768H204.152L208.094 39.5H202.088L200.086 26.1328L194.604 39.5H192.201L186.996 26.1328L184.994 39.5H178.988Z" fill="#0000FF"/>
<path d="M160.957 16.2768V28.9048C160.957 29.5824 160.978 30.2805 161.019 30.9992C161.08 31.6973 161.234 32.3339 161.481 32.9088C161.748 33.4837 162.158 33.956 162.713 34.3256C163.267 34.6747 164.047 34.8492 165.054 34.8492C166.06 34.8492 166.83 34.6747 167.364 34.3256C167.918 33.956 168.329 33.4837 168.596 32.9088C168.863 32.3339 169.017 31.6973 169.058 30.9992C169.119 30.2805 169.15 29.5824 169.15 28.9048V16.2768H175.156V29.7364C175.156 33.3503 174.324 35.9888 172.661 37.652C171.019 39.3152 168.483 40.1468 165.054 40.1468C161.625 40.1468 159.078 39.3152 157.415 37.652C155.752 35.9888 154.92 33.3503 154.92 29.7364V16.2768H160.957Z" fill="#0000FF"/>
<path d="M141.095 34.3872H150.828V39.5H130.962L141.958 21.3896H132.81V16.2768H152.029L141.095 34.3872Z" fill="#0000FF"/>
<path d="M453.5 0.5H0.5V91.5H453.5V0.5Z" stroke="#0000FF"/>
<path d="M51.217 16.0366V57.9299C51.217 59.7333 51.217 61.2592 50.9406 62.7851C50.8024 64.311 50.3878 65.5595 49.9732 66.6692C49.2823 68.3339 48.3149 69.9985 47.2094 71.3857C45.9656 72.7729 44.5837 74.0214 43.0635 74.9924C41.4052 75.9634 39.7469 76.7958 37.8122 77.3507C35.8775 77.9055 33.8046 78.1829 31.7316 78.1829C25.2365 78.1829 20.1234 75.2698 15.9775 69.3049L26.2039 58.7622C26.4803 60.5656 27.033 61.9528 28.0004 63.0625C28.9678 64.1723 30.0733 64.7272 31.317 64.7272C34.2191 64.7272 35.7393 62.3689 35.7393 57.7912V16.1753H51.3552L51.217 16.0366Z" fill="#0000FF"/>
<path d="M97.7884 65.9756H75.5391L71.9461 76.5183H55.2246L78.0266 16.1754H95.0245L117.826 76.5183H101.105L97.512 65.9756H97.7884ZM93.6425 54.0458L86.5946 33.9314L79.5468 54.0458H93.5043H93.6425Z" fill="#0000FF"/>
</svg>
