<svg width="454" height="92" viewBox="0 0 454 92" fill="none" xmlns="http://www.w3.org/2000/svg">
<path d="M453.5 0.5H0.5V91.5H453.5V0.5Z" fill="white"/>
<path d="M141.095 34.3872H150.828V39.5H130.962L141.958 21.3896H132.81V16.2768H152.029L141.095 34.3872ZM160.957 16.2768V28.9048C160.957 29.5824 160.978 30.2805 161.019 30.9992C161.08 31.6973 161.234 32.3339 161.481 32.9088C161.748 33.4837 162.158 33.956 162.713 34.3256C163.267 34.6747 164.047 34.8492 165.054 34.8492C166.06 34.8492 166.83 34.6747 167.364 34.3256C167.918 33.956 168.329 33.4837 168.596 32.9088C168.862 32.3339 169.016 31.6973 169.058 30.9992C169.119 30.2805 169.15 29.5824 169.15 28.9048V16.2768H175.156V29.7364C175.156 33.3503 174.324 35.9888 172.661 37.652C171.018 39.3152 168.483 40.1468 165.054 40.1468C161.624 40.1468 159.078 39.3152 157.415 37.652C155.752 35.9888 154.92 33.3503 154.92 29.7364V16.2768H160.957ZM178.988 39.5L182.931 16.2768H188.906L193.557 28.6584L198.177 16.2768H204.152L208.094 39.5H202.088L200.086 26.1328L194.604 39.5H192.202L186.996 26.1328L184.994 39.5H178.988ZM228.422 25.8556L235.784 16.2768H243.237L234.028 27.2724L244.1 39.5H236.276L228.422 29.4284V39.5H222.386V16.2768H228.422V25.8556ZM252.816 16.2768V28.9048C252.816 29.5824 252.836 30.2805 252.877 30.9992C252.939 31.6973 253.093 32.3339 253.339 32.9088C253.606 33.4837 254.017 33.956 254.571 34.3256C255.126 34.6747 255.906 34.8492 256.912 34.8492C257.918 34.8492 258.688 34.6747 259.222 34.3256C259.777 33.956 260.187 33.4837 260.454 32.9088C260.721 32.3339 260.875 31.6973 260.916 30.9992C260.978 30.2805 261.009 29.5824 261.009 28.9048V16.2768H267.015V29.7364C267.015 33.3503 266.183 35.9888 264.52 37.652C262.877 39.3152 260.341 40.1468 256.912 40.1468C253.483 40.1468 250.937 39.3152 249.274 37.652C247.611 35.9888 246.779 33.3503 246.779 29.7364V16.2768H252.816ZM271.894 39.5V16.2768H277.931L289.081 30.4756V16.2768H295.087V39.5H289.081L277.931 25.3012V39.5H271.894ZM312.708 22.2212C312.051 21.6873 311.394 21.2972 310.737 21.0508C310.08 20.7839 309.443 20.6504 308.827 20.6504C308.047 20.6504 307.411 20.8352 306.918 21.2048C306.425 21.5744 306.179 22.0569 306.179 22.6524C306.179 23.0631 306.302 23.4019 306.548 23.6688C306.795 23.9357 307.113 24.1719 307.503 24.3772C307.914 24.562 308.365 24.7263 308.858 24.87C309.372 25.0137 309.875 25.1677 310.367 25.332C312.339 25.9891 313.776 26.872 314.679 27.9808C315.603 29.0691 316.065 30.4961 316.065 32.262C316.065 33.4529 315.86 34.5309 315.449 35.496C315.059 36.4611 314.474 37.2927 313.694 37.9908C312.934 38.6684 311.99 39.192 310.86 39.5616C309.751 39.9517 308.489 40.1468 307.072 40.1468C304.136 40.1468 301.415 39.2741 298.91 37.5288L301.497 32.6624C302.4 33.4632 303.294 34.0587 304.177 34.4488C305.06 34.8389 305.932 35.034 306.795 35.034C307.78 35.034 308.509 34.8081 308.981 34.3564C309.474 33.9047 309.721 33.3913 309.721 32.8164C309.721 32.4673 309.659 32.1696 309.536 31.9232C309.413 31.6563 309.207 31.4201 308.92 31.2148C308.632 30.9889 308.252 30.7836 307.78 30.5988C307.328 30.414 306.774 30.2087 306.117 29.9828C305.337 29.7364 304.567 29.4695 303.807 29.182C303.068 28.874 302.4 28.4736 301.805 27.9808C301.23 27.488 300.758 26.872 300.388 26.1328C300.039 25.3731 299.865 24.4183 299.865 23.2684C299.865 22.1185 300.049 21.0816 300.419 20.1576C300.809 19.2131 301.343 18.4123 302.021 17.7552C302.719 17.0776 303.561 16.554 304.546 16.1844C305.552 15.8148 306.671 15.63 307.903 15.63C309.053 15.63 310.254 15.7943 311.507 16.1228C312.76 16.4308 313.961 16.8928 315.111 17.5088L312.708 22.2212ZM328.828 21.3896V39.5H322.791V21.3896H317.832V16.2768H333.787V21.3896H328.828ZM342.509 25.2396H351.225V16.2768H357.262V39.5H351.225V29.9212H342.509V39.5H336.472V16.2768H342.509V25.2396ZM374.757 30.876L372.046 23.1452L369.336 30.876H374.757ZM376.358 35.4652H367.734L366.348 39.5H359.911L368.751 16.2768H375.342L384.181 39.5H377.744L376.358 35.4652ZM392.198 16.2768V28.9048C392.198 29.5824 392.218 30.2805 392.259 30.9992C392.321 31.6973 392.475 32.3339 392.721 32.9088C392.988 33.4837 393.399 33.956 393.953 34.3256C394.508 34.6747 395.288 34.8492 396.294 34.8492C397.3 34.8492 398.07 34.6747 398.604 34.3256C399.159 33.956 399.569 33.4837 399.836 32.9088C400.103 32.3339 400.257 31.6973 400.298 30.9992C400.36 30.2805 400.391 29.5824 400.391 28.9048V16.2768H406.397V29.7364C406.397 33.3503 405.565 35.9888 403.902 37.652C402.259 39.3152 399.723 40.1468 396.294 40.1468C392.865 40.1468 390.319 39.3152 388.656 37.652C386.993 35.9888 386.161 33.3503 386.161 29.7364V16.2768H392.198ZM424.027 22.2212C423.37 21.6873 422.713 21.2972 422.056 21.0508C421.399 20.7839 420.763 20.6504 420.147 20.6504C419.366 20.6504 418.73 20.8352 418.237 21.2048C417.744 21.5744 417.498 22.0569 417.498 22.6524C417.498 23.0631 417.621 23.4019 417.867 23.6688C418.114 23.9357 418.432 24.1719 418.822 24.3772C419.233 24.562 419.685 24.7263 420.177 24.87C420.691 25.0137 421.194 25.1677 421.687 25.332C423.658 25.9891 425.095 26.872 425.999 27.9808C426.923 29.0691 427.385 30.4961 427.385 32.262C427.385 33.4529 427.179 34.5309 426.769 35.496C426.378 36.4611 425.793 37.2927 425.013 37.9908C424.253 38.6684 423.309 39.192 422.179 39.5616C421.071 39.9517 419.808 40.1468 418.391 40.1468C415.455 40.1468 412.734 39.2741 410.229 37.5288L412.816 32.6624C413.72 33.4632 414.613 34.0587 415.496 34.4488C416.379 34.8389 417.251 35.034 418.114 35.034C419.099 35.034 419.828 34.8081 420.301 34.3564C420.793 33.9047 421.04 33.3913 421.04 32.8164C421.04 32.4673 420.978 32.1696 420.855 31.9232C420.732 31.6563 420.526 31.4201 420.239 31.2148C419.951 30.9889 419.572 30.7836 419.099 30.5988C418.648 30.414 418.093 30.2087 417.436 29.9828C416.656 29.7364 415.886 29.4695 415.126 29.182C414.387 28.874 413.72 28.4736 413.124 27.9808C412.549 27.488 412.077 26.872 411.707 26.1328C411.358 25.3731 411.184 24.4183 411.184 23.2684C411.184 22.1185 411.369 21.0816 411.738 20.1576C412.128 19.2131 412.662 18.4123 413.34 17.7552C414.038 17.0776 414.88 16.554 415.865 16.1844C416.871 15.8148 417.991 15.63 419.223 15.63C420.372 15.63 421.574 15.7943 422.826 16.1228C424.079 16.4308 425.28 16.8928 426.43 17.5088L424.027 22.2212ZM430.387 36.5432C430.387 36.0504 430.479 35.5884 430.664 35.1572C430.849 34.7055 431.106 34.3153 431.434 33.9868C431.763 33.6583 432.143 33.4016 432.574 33.2168C433.026 33.032 433.498 32.9396 433.991 32.9396C434.483 32.9396 434.945 33.032 435.377 33.2168C435.828 33.4016 436.219 33.6583 436.547 33.9868C436.876 34.3153 437.132 34.7055 437.317 35.1572C437.502 35.5884 437.594 36.0504 437.594 36.5432C437.594 37.036 437.502 37.5083 437.317 37.96C437.132 38.3912 436.876 38.7711 436.547 39.0996C436.219 39.4281 435.828 39.6848 435.377 39.8696C434.945 40.0544 434.483 40.1468 433.991 40.1468C433.498 40.1468 433.026 40.0544 432.574 39.8696C432.143 39.6848 431.763 39.4281 431.434 39.0996C431.106 38.7711 430.849 38.3912 430.664 37.96C430.479 37.5083 430.387 37.036 430.387 36.5432ZM141.095 71.3872H150.828V76.5H130.962L141.958 58.3896H132.81V53.2768H152.029L141.095 71.3872ZM160.957 53.2768V65.9048C160.957 66.5824 160.978 67.2805 161.019 67.9992C161.08 68.6973 161.234 69.3339 161.481 69.9088C161.748 70.4837 162.158 70.956 162.713 71.3256C163.267 71.6747 164.047 71.8492 165.054 71.8492C166.06 71.8492 166.83 71.6747 167.364 71.3256C167.918 70.956 168.329 70.4837 168.596 69.9088C168.862 69.3339 169.016 68.6973 169.058 67.9992C169.119 67.2805 169.15 66.5824 169.15 65.9048V53.2768H175.156V66.7364C175.156 70.3503 174.324 72.9888 172.661 74.652C171.018 76.3152 168.483 77.1468 165.054 77.1468C161.624 77.1468 159.078 76.3152 157.415 74.652C155.752 72.9888 154.92 70.3503 154.92 66.7364V53.2768H160.957ZM196.54 53.2768V76.5H190.503V53.2768H196.54ZM201.391 76.5V53.2768H207.428L218.577 67.4756V53.2768H224.583V76.5H218.577L207.428 62.3012V76.5H201.391ZM242.205 59.2212C241.548 58.6873 240.891 58.2972 240.234 58.0508C239.577 57.7839 238.94 57.6504 238.324 57.6504C237.544 57.6504 236.907 57.8352 236.415 58.2048C235.922 58.5744 235.675 59.0569 235.675 59.6524C235.675 60.0631 235.799 60.4019 236.045 60.6688C236.291 60.9357 236.61 61.1719 237 61.3772C237.411 61.562 237.862 61.7263 238.355 61.87C238.868 62.0137 239.371 62.1677 239.864 62.332C241.835 62.9891 243.273 63.872 244.176 64.9808C245.1 66.0691 245.562 67.4961 245.562 69.262C245.562 70.4529 245.357 71.5309 244.946 72.496C244.556 73.4611 243.971 74.2927 243.191 74.9908C242.431 75.6684 241.486 76.192 240.357 76.5616C239.248 76.9517 237.985 77.1468 236.569 77.1468C233.632 77.1468 230.912 76.2741 228.407 74.5288L230.994 69.6624C231.897 70.4632 232.791 71.0587 233.673 71.4488C234.556 71.8389 235.429 72.034 236.291 72.034C237.277 72.034 238.006 71.8081 238.478 71.3564C238.971 70.9047 239.217 70.3913 239.217 69.8164C239.217 69.4673 239.156 69.1696 239.033 68.9232C238.909 68.6563 238.704 68.4201 238.417 68.2148C238.129 67.9889 237.749 67.7836 237.277 67.5988C236.825 67.414 236.271 67.2087 235.614 66.9828C234.834 66.7364 234.064 66.4695 233.304 66.182C232.565 65.874 231.897 65.4736 231.302 64.9808C230.727 64.488 230.255 63.872 229.885 63.1328C229.536 62.3731 229.361 61.4183 229.361 60.2684C229.361 59.1185 229.546 58.0816 229.916 57.1576C230.306 56.2131 230.84 55.4123 231.517 54.7552C232.216 54.0776 233.057 53.554 234.043 53.1844C235.049 52.8148 236.168 52.63 237.4 52.63C238.55 52.63 239.751 52.7943 241.004 53.1228C242.256 53.4308 243.458 53.8928 244.607 54.5088L242.205 59.2212ZM255.402 63.9336H257.404C259.622 63.9336 260.731 62.9685 260.731 61.0384C260.731 59.1083 259.622 58.1432 257.404 58.1432H255.402V63.9336ZM255.402 76.5H249.366V53.2768H258.975C261.583 53.2768 263.575 53.9544 264.95 55.3096C266.347 56.6648 267.045 58.5744 267.045 61.0384C267.045 63.5024 266.347 65.412 264.95 66.7672C263.575 68.1224 261.583 68.8 258.975 68.8H255.402V76.5ZM276.277 53.2768V76.5H270.24V53.2768H276.277ZM287.165 63.6564H288.305C289.495 63.6564 290.409 63.41 291.046 62.9172C291.682 62.4244 292.001 61.716 292.001 60.792C292.001 59.868 291.682 59.1596 291.046 58.6668C290.409 58.174 289.495 57.9276 288.305 57.9276H287.165V63.6564ZM300.44 76.5H292.925L287.165 67.568V76.5H281.128V53.2768H290.522C291.816 53.2768 292.945 53.4719 293.91 53.862C294.875 54.2316 295.666 54.7449 296.282 55.402C296.918 56.0591 297.391 56.8188 297.699 57.6812C298.027 58.5436 298.191 59.4676 298.191 60.4532C298.191 62.2191 297.76 63.6564 296.898 64.7652C296.056 65.8535 294.803 66.5927 293.14 66.9828L300.44 76.5ZM315.593 67.876L312.882 60.1452L310.172 67.876H315.593ZM317.194 72.4652H308.57L307.184 76.5H300.747L309.587 53.2768H316.178L325.018 76.5H318.58L317.194 72.4652ZM335.445 58.3896V76.5H329.408V58.3896H324.45V53.2768H340.404V58.3896H335.445ZM349.126 53.2768V76.5H343.089V53.2768H349.126ZM359.244 64.8884C359.244 65.8124 359.419 66.6645 359.768 67.4448C360.117 68.2251 360.589 68.9027 361.185 69.4776C361.78 70.0525 362.468 70.5043 363.248 70.8328C364.049 71.1408 364.891 71.2948 365.774 71.2948C366.657 71.2948 367.488 71.1408 368.269 70.8328C369.069 70.5043 369.767 70.0525 370.363 69.4776C370.979 68.9027 371.461 68.2251 371.811 67.4448C372.16 66.6645 372.334 65.8124 372.334 64.8884C372.334 63.9644 372.16 63.1123 371.811 62.332C371.461 61.5517 370.979 60.8741 370.363 60.2992C369.767 59.7243 369.069 59.2828 368.269 58.9748C367.488 58.6463 366.657 58.482 365.774 58.482C364.891 58.482 364.049 58.6463 363.248 58.9748C362.468 59.2828 361.78 59.7243 361.185 60.2992C360.589 60.8741 360.117 61.5517 359.768 62.332C359.419 63.1123 359.244 63.9644 359.244 64.8884ZM352.93 64.8884C352.93 63.1636 353.248 61.562 353.885 60.0836C354.521 58.5847 355.404 57.2808 356.534 56.172C357.663 55.0632 359.008 54.2008 360.569 53.5848C362.15 52.9483 363.885 52.63 365.774 52.63C367.642 52.63 369.367 52.9483 370.948 53.5848C372.529 54.2008 373.884 55.0632 375.014 56.172C376.164 57.2808 377.057 58.5847 377.693 60.0836C378.33 61.562 378.648 63.1636 378.648 64.8884C378.648 66.6132 378.33 68.2251 377.693 69.724C377.057 71.2024 376.164 72.496 375.014 73.6048C373.884 74.7136 372.529 75.5863 370.948 76.2228C369.367 76.8388 367.642 77.1468 365.774 77.1468C363.885 77.1468 362.15 76.8388 360.569 76.2228C359.008 75.5863 357.663 74.7136 356.534 73.6048C355.404 72.496 354.521 71.2024 353.885 69.724C353.248 68.2251 352.93 66.6132 352.93 64.8884ZM382.461 76.5V53.2768H388.498L399.648 67.4756V53.2768H405.654V76.5H399.648L388.498 62.3012V76.5H382.461ZM410.505 73.5432C410.505 73.0504 410.598 72.5884 410.783 72.1572C410.967 71.7055 411.224 71.3153 411.553 70.9868C411.881 70.6583 412.261 70.4016 412.692 70.2168C413.144 70.032 413.616 69.9396 414.109 69.9396C414.602 69.9396 415.064 70.032 415.495 70.2168C415.947 70.4016 416.337 70.6583 416.665 70.9868C416.994 71.3153 417.251 71.7055 417.435 72.1572C417.62 72.5884 417.713 73.0504 417.713 73.5432C417.713 74.036 417.62 74.5083 417.435 74.96C417.251 75.3912 416.994 75.7711 416.665 76.0996C416.337 76.4281 415.947 76.6848 415.495 76.8696C415.064 77.0544 414.602 77.1468 414.109 77.1468C413.616 77.1468 413.144 77.0544 412.692 76.8696C412.261 76.6848 411.881 76.4281 411.553 76.0996C411.224 75.7711 410.967 75.3912 410.783 74.96C410.598 74.5083 410.505 74.036 410.505 73.5432Z" fill="#0000FF"/>
<path d="M453.5 0.5H0.5V91.5H453.5V0.5Z" stroke="#0000FF"/>
<path d="M51.217 16.0366V57.9299C51.217 59.7333 51.217 61.2592 50.9406 62.7851C50.8024 64.311 50.3878 65.5595 49.9732 66.6692C49.2823 68.3339 48.3149 69.9985 47.2094 71.3857C45.9656 72.7729 44.5837 74.0214 43.0635 74.9924C41.4052 75.9634 39.7469 76.7958 37.8122 77.3507C35.8775 77.9055 33.8046 78.1829 31.7316 78.1829C25.2365 78.1829 20.1234 75.2698 15.9775 69.3049L26.2039 58.7622C26.4803 60.5656 27.033 61.9528 28.0004 63.0625C28.9678 64.1723 30.0733 64.7272 31.317 64.7272C34.2191 64.7272 35.7393 62.3689 35.7393 57.7912V16.1753H51.3552L51.217 16.0366Z" fill="#0000FF"/>
<path d="M97.7884 65.9756H75.5391L71.9461 76.5183H55.2246L78.0266 16.1753H95.0245L117.826 76.5183H101.105L97.512 65.9756H97.7884ZM93.6425 54.0457L86.5946 33.9314L79.5468 54.0457H93.5043H93.6425Z" fill="#0000FF"/>
</svg>
