<svg width="454" height="92" viewBox="0 0 454 92" fill="none" xmlns="http://www.w3.org/2000/svg">
<path d="M453.5 0.5H0.5V91.5H453.5V0.5Z" fill="white"/>
<path d="M141.095 34.3872H150.828V39.5H130.962L141.958 21.3896H132.81V16.2768H152.029L141.095 34.3872ZM160.957 16.2768V28.9048C160.957 29.5824 160.978 30.2805 161.019 30.9992C161.08 31.6973 161.234 32.3339 161.481 32.9088C161.748 33.4837 162.158 33.956 162.713 34.3256C163.267 34.6747 164.047 34.8492 165.054 34.8492C166.06 34.8492 166.83 34.6747 167.364 34.3256C167.918 33.956 168.329 33.4837 168.596 32.9088C168.862 32.3339 169.016 31.6973 169.058 30.9992C169.119 30.2805 169.15 29.5824 169.15 28.9048V16.2768H175.156V29.7364C175.156 33.3503 174.324 35.9888 172.661 37.652C171.018 39.3152 168.483 40.1468 165.054 40.1468C161.624 40.1468 159.078 39.3152 157.415 37.652C155.752 35.9888 154.92 33.3503 154.92 29.7364V16.2768H160.957ZM178.988 39.5L182.931 16.2768H188.906L193.557 28.6584L198.177 16.2768H204.152L208.094 39.5H202.088L200.086 26.1328L194.604 39.5H192.202L186.996 26.1328L184.994 39.5H178.988ZM228.422 25.8556L235.784 16.2768H243.237L234.028 27.2724L244.1 39.5H236.276L228.422 29.4284V39.5H222.386V16.2768H228.422V25.8556ZM252.816 16.2768V28.9048C252.816 29.5824 252.836 30.2805 252.877 30.9992C252.939 31.6973 253.093 32.3339 253.339 32.9088C253.606 33.4837 254.017 33.956 254.571 34.3256C255.126 34.6747 255.906 34.8492 256.912 34.8492C257.918 34.8492 258.688 34.6747 259.222 34.3256C259.777 33.956 260.187 33.4837 260.454 32.9088C260.721 32.3339 260.875 31.6973 260.916 30.9992C260.978 30.2805 261.009 29.5824 261.009 28.9048V16.2768H267.015V29.7364C267.015 33.3503 266.183 35.9888 264.52 37.652C262.877 39.3152 260.341 40.1468 256.912 40.1468C253.483 40.1468 250.937 39.3152 249.274 37.652C247.611 35.9888 246.779 33.3503 246.779 29.7364V16.2768H252.816ZM271.894 39.5V16.2768H277.931L289.081 30.4756V16.2768H295.087V39.5H289.081L277.931 25.3012V39.5H271.894ZM312.708 22.2212C312.051 21.6873 311.394 21.2972 310.737 21.0508C310.08 20.7839 309.443 20.6504 308.827 20.6504C308.047 20.6504 307.411 20.8352 306.918 21.2048C306.425 21.5744 306.179 22.0569 306.179 22.6524C306.179 23.0631 306.302 23.4019 306.548 23.6688C306.795 23.9357 307.113 24.1719 307.503 24.3772C307.914 24.562 308.365 24.7263 308.858 24.87C309.372 25.0137 309.875 25.1677 310.367 25.332C312.339 25.9891 313.776 26.872 314.679 27.9808C315.603 29.0691 316.065 30.4961 316.065 32.262C316.065 33.4529 315.86 34.5309 315.449 35.496C315.059 36.4611 314.474 37.2927 313.694 37.9908C312.934 38.6684 311.99 39.192 310.86 39.5616C309.751 39.9517 308.489 40.1468 307.072 40.1468C304.136 40.1468 301.415 39.2741 298.91 37.5288L301.497 32.6624C302.4 33.4632 303.294 34.0587 304.177 34.4488C305.06 34.8389 305.932 35.034 306.795 35.034C307.78 35.034 308.509 34.8081 308.981 34.3564C309.474 33.9047 309.721 33.3913 309.721 32.8164C309.721 32.4673 309.659 32.1696 309.536 31.9232C309.413 31.6563 309.207 31.4201 308.92 31.2148C308.632 30.9889 308.252 30.7836 307.78 30.5988C307.328 30.414 306.774 30.2087 306.117 29.9828C305.337 29.7364 304.567 29.4695 303.807 29.182C303.068 28.874 302.4 28.4736 301.805 27.9808C301.23 27.488 300.758 26.872 300.388 26.1328C300.039 25.3731 299.865 24.4183 299.865 23.2684C299.865 22.1185 300.049 21.0816 300.419 20.1576C300.809 19.2131 301.343 18.4123 302.021 17.7552C302.719 17.0776 303.561 16.554 304.546 16.1844C305.552 15.8148 306.671 15.63 307.903 15.63C309.053 15.63 310.254 15.7943 311.507 16.1228C312.76 16.4308 313.961 16.8928 315.111 17.5088L312.708 22.2212ZM328.828 21.3896V39.5H322.791V21.3896H317.832V16.2768H333.787V21.3896H328.828ZM342.509 25.2396H351.225V16.2768H357.262V39.5H351.225V29.9212H342.509V39.5H336.472V16.2768H342.509V25.2396ZM374.757 30.876L372.046 23.1452L369.336 30.876H374.757ZM376.358 35.4652H367.734L366.348 39.5H359.911L368.751 16.2768H375.342L384.181 39.5H377.744L376.358 35.4652ZM392.198 16.2768V28.9048C392.198 29.5824 392.218 30.2805 392.259 30.9992C392.321 31.6973 392.475 32.3339 392.721 32.9088C392.988 33.4837 393.399 33.956 393.953 34.3256C394.508 34.6747 395.288 34.8492 396.294 34.8492C397.3 34.8492 398.07 34.6747 398.604 34.3256C399.159 33.956 399.569 33.4837 399.836 32.9088C400.103 32.3339 400.257 31.6973 400.298 30.9992C400.36 30.2805 400.391 29.5824 400.391 28.9048V16.2768H406.397V29.7364C406.397 33.3503 405.565 35.9888 403.902 37.652C402.259 39.3152 399.723 40.1468 396.294 40.1468C392.865 40.1468 390.319 39.3152 388.656 37.652C386.993 35.9888 386.161 33.3503 386.161 29.7364V16.2768H392.198ZM424.027 22.2212C423.37 21.6873 422.713 21.2972 422.056 21.0508C421.399 20.7839 420.763 20.6504 420.147 20.6504C419.366 20.6504 418.73 20.8352 418.237 21.2048C417.744 21.5744 417.498 22.0569 417.498 22.6524C417.498 23.0631 417.621 23.4019 417.867 23.6688C418.114 23.9357 418.432 24.1719 418.822 24.3772C419.233 24.562 419.685 24.7263 420.177 24.87C420.691 25.0137 421.194 25.1677 421.687 25.332C423.658 25.9891 425.095 26.872 425.999 27.9808C426.923 29.0691 427.385 30.4961 427.385 32.262C427.385 33.4529 427.179 34.5309 426.769 35.496C426.378 36.4611 425.793 37.2927 425.013 37.9908C424.253 38.6684 423.309 39.192 422.179 39.5616C421.071 39.9517 419.808 40.1468 418.391 40.1468C415.455 40.1468 412.734 39.2741 410.229 37.5288L412.816 32.6624C413.72 33.4632 414.613 34.0587 415.496 34.4488C416.379 34.8389 417.251 35.034 418.114 35.034C419.099 35.034 419.828 34.8081 420.301 34.3564C420.793 33.9047 421.04 33.3913 421.04 32.8164C421.04 32.4673 420.978 32.1696 420.855 31.9232C420.732 31.6563 420.526 31.4201 420.239 31.2148C419.951 30.9889 419.572 30.7836 419.099 30.5988C418.648 30.414 418.093 30.2087 417.436 29.9828C416.656 29.7364 415.886 29.4695 415.126 29.182C414.387 28.874 413.72 28.4736 413.124 27.9808C412.549 27.488 412.077 26.872 411.707 26.1328C411.358 25.3731 411.184 24.4183 411.184 23.2684C411.184 22.1185 411.369 21.0816 411.738 20.1576C412.128 19.2131 412.662 18.4123 413.34 17.7552C414.038 17.0776 414.88 16.554 415.865 16.1844C416.871 15.8148 417.991 15.63 419.223 15.63C420.372 15.63 421.574 15.7943 422.826 16.1228C424.079 16.4308 425.28 16.8928 426.43 17.5088L424.027 22.2212ZM430.387 36.5432C430.387 36.0504 430.479 35.5884 430.664 35.1572C430.849 34.7055 431.106 34.3153 431.434 33.9868C431.763 33.6583 432.143 33.4016 432.574 33.2168C433.026 33.032 433.498 32.9396 433.991 32.9396C434.483 32.9396 434.945 33.032 435.377 33.2168C435.828 33.4016 436.219 33.6583 436.547 33.9868C436.876 34.3153 437.132 34.7055 437.317 35.1572C437.502 35.5884 437.594 36.0504 437.594 36.5432C437.594 37.036 437.502 37.5083 437.317 37.96C437.132 38.3912 436.876 38.7711 436.547 39.0996C436.219 39.4281 435.828 39.6848 435.377 39.8696C434.945 40.0544 434.483 40.1468 433.991 40.1468C433.498 40.1468 433.026 40.0544 432.574 39.8696C432.143 39.6848 431.763 39.4281 431.434 39.0996C431.106 38.7711 430.849 38.3912 430.664 37.96C430.479 37.5083 430.387 37.036 430.387 36.5432ZM141.095 71.3872H150.828V76.5H130.962L141.958 58.3896H132.81V53.2768H152.029L141.095 71.3872ZM160.957 53.2768V65.9048C160.957 66.5824 160.978 67.2805 161.019 67.9992C161.08 68.6973 161.234 69.3339 161.481 69.9088C161.748 70.4837 162.158 70.956 162.713 71.3256C163.267 71.6747 164.047 71.8492 165.054 71.8492C166.06 71.8492 166.83 71.6747 167.364 71.3256C167.918 70.956 168.329 70.4837 168.596 69.9088C168.862 69.3339 169.016 68.6973 169.058 67.9992C169.119 67.2805 169.15 66.5824 169.15 65.9048V53.2768H175.156V66.7364C175.156 70.3503 174.324 72.9888 172.661 74.652C171.018 76.3152 168.483 77.1468 165.054 77.1468C161.624 77.1468 159.078 76.3152 157.415 74.652C155.752 72.9888 154.92 70.3503 154.92 66.7364V53.2768H160.957ZM198.665 71.3872H208.398V76.5H188.532L199.527 58.3896H190.38V53.2768H209.599L198.665 71.3872ZM218.527 53.2768V65.9048C218.527 66.5824 218.547 67.2805 218.588 67.9992C218.65 68.6973 218.804 69.3339 219.05 69.9088C219.317 70.4837 219.728 70.956 220.282 71.3256C220.837 71.6747 221.617 71.8492 222.623 71.8492C223.629 71.8492 224.399 71.6747 224.933 71.3256C225.487 70.956 225.898 70.4837 226.165 69.9088C226.432 69.3339 226.586 68.6973 226.627 67.9992C226.689 67.2805 226.719 66.5824 226.719 65.9048V53.2768H232.725V66.7364C232.725 70.3503 231.894 72.9888 230.231 74.652C228.588 76.3152 226.052 77.1468 222.623 77.1468C219.194 77.1468 216.648 76.3152 214.985 74.652C213.321 72.9888 212.49 70.3503 212.49 66.7364V53.2768H218.527ZM223.763 48.01C223.763 47.6199 223.835 47.2503 223.978 46.9012C224.143 46.5316 224.358 46.2133 224.625 45.9464C224.913 45.6589 225.241 45.4433 225.611 45.2996C225.98 45.1353 226.37 45.0532 226.781 45.0532C227.192 45.0532 227.572 45.1353 227.921 45.2996C228.29 45.4433 228.609 45.6487 228.875 45.9156C229.163 46.1825 229.389 46.5008 229.553 46.8704C229.717 47.24 229.799 47.6301 229.799 48.0408C229.799 48.9032 229.502 49.6219 228.906 50.1968C228.331 50.7717 227.623 51.0592 226.781 51.0592C225.919 51.0592 225.2 50.7717 224.625 50.1968C224.05 49.6013 223.763 48.8724 223.763 48.01ZM215.385 48.01C215.385 47.6199 215.457 47.2503 215.601 46.9012C215.765 46.5316 215.981 46.2133 216.247 45.9464C216.535 45.6589 216.863 45.4433 217.233 45.2996C217.603 45.1353 217.993 45.0532 218.403 45.0532C218.814 45.0532 219.194 45.1353 219.543 45.2996C219.913 45.4433 220.231 45.6487 220.498 45.9156C220.785 46.1825 221.011 46.5008 221.175 46.8704C221.34 47.24 221.422 47.6301 221.422 48.0408C221.422 48.472 221.34 48.8724 221.175 49.242C221.011 49.5911 220.796 49.9093 220.529 50.1968C220.262 50.4637 219.943 50.6793 219.574 50.8436C219.204 50.9873 218.824 51.0592 218.434 51.0592C217.551 51.0592 216.822 50.7615 216.247 50.166C215.673 49.5705 215.385 48.8519 215.385 48.01ZM243.672 63.6564H244.812C246.002 63.6564 246.916 63.41 247.553 62.9172C248.189 62.4244 248.508 61.716 248.508 60.792C248.508 59.868 248.189 59.1596 247.553 58.6668C246.916 58.174 246.002 57.9276 244.812 57.9276H243.672V63.6564ZM256.947 76.5H249.432L243.672 67.568V76.5H237.635V53.2768H247.029C248.323 53.2768 249.452 53.4719 250.417 53.862C251.382 54.2316 252.173 54.7449 252.789 55.402C253.425 56.0591 253.898 56.8188 254.206 57.6812C254.534 58.5436 254.698 59.4676 254.698 60.4532C254.698 62.2191 254.267 63.6564 253.405 64.7652C252.563 65.8535 251.31 66.5927 249.647 66.9828L256.947 76.5ZM265.509 53.2768V76.5H259.472V53.2768H265.509ZM287.085 61.0384C285.688 59.3341 283.963 58.482 281.91 58.482C281.007 58.482 280.165 58.6463 279.385 58.9748C278.625 59.3033 277.968 59.7551 277.413 60.33C276.859 60.8844 276.417 61.5517 276.089 62.332C275.781 63.1123 275.627 63.9541 275.627 64.8576C275.627 65.7816 275.781 66.6337 276.089 67.414C276.417 68.1943 276.859 68.8719 277.413 69.4468C277.988 70.0217 278.656 70.4735 279.415 70.802C280.175 71.1305 280.996 71.2948 281.879 71.2948C283.809 71.2948 285.545 70.4735 287.085 68.8308V75.9764L286.469 76.192C285.545 76.5205 284.682 76.7567 283.881 76.9004C283.081 77.0647 282.29 77.1468 281.51 77.1468C279.908 77.1468 278.368 76.8491 276.89 76.2536C275.432 75.6376 274.138 74.7855 273.009 73.6972C271.9 72.5884 271.007 71.2845 270.329 69.7856C269.652 68.2661 269.313 66.6132 269.313 64.8268C269.313 63.0404 269.641 61.408 270.299 59.9296C270.976 58.4307 271.869 57.1473 272.978 56.0796C274.107 54.9913 275.411 54.1495 276.89 53.554C278.368 52.938 279.918 52.63 281.541 52.63C282.465 52.63 283.368 52.7327 284.251 52.938C285.154 53.1228 286.099 53.4205 287.085 53.8312V61.0384ZM297.933 62.2396H306.649V53.2768H312.686V76.5H306.649V66.9212H297.933V76.5H291.896V53.2768H297.933V62.2396ZM316.752 73.5432C316.752 73.0504 316.844 72.5884 317.029 72.1572C317.214 71.7055 317.471 71.3153 317.799 70.9868C318.128 70.6583 318.508 70.4016 318.939 70.2168C319.39 70.032 319.863 69.9396 320.356 69.9396C320.848 69.9396 321.31 70.032 321.742 70.2168C322.193 70.4016 322.583 70.6583 322.912 70.9868C323.24 71.3153 323.497 71.7055 323.682 72.1572C323.867 72.5884 323.959 73.0504 323.959 73.5432C323.959 74.036 323.867 74.5083 323.682 74.96C323.497 75.3912 323.24 75.7711 322.912 76.0996C322.583 76.4281 322.193 76.6848 321.742 76.8696C321.31 77.0544 320.848 77.1468 320.356 77.1468C319.863 77.1468 319.39 77.0544 318.939 76.8696C318.508 76.6848 318.128 76.4281 317.799 76.0996C317.471 75.7711 317.214 75.3912 317.029 74.96C316.844 74.5083 316.752 74.036 316.752 73.5432Z" fill="#0000FF"/>
<path d="M453.5 0.5H0.5V91.5H453.5V0.5Z" stroke="#0000FF"/>
<path d="M51.217 16.0366V57.9299C51.217 59.7333 51.217 61.2592 50.9406 62.7851C50.8024 64.311 50.3878 65.5595 49.9732 66.6692C49.2823 68.3339 48.3149 69.9985 47.2094 71.3857C45.9656 72.7729 44.5837 74.0214 43.0635 74.9924C41.4052 75.9634 39.7469 76.7958 37.8122 77.3507C35.8775 77.9055 33.8046 78.1829 31.7316 78.1829C25.2365 78.1829 20.1234 75.2698 15.9775 69.3049L26.2039 58.7622C26.4803 60.5656 27.033 61.9528 28.0004 63.0625C28.9678 64.1723 30.0733 64.7272 31.317 64.7272C34.2191 64.7272 35.7393 62.3689 35.7393 57.7912V16.1753H51.3552L51.217 16.0366Z" fill="#0000FF"/>
<path d="M97.7884 65.9756H75.5391L71.9461 76.5183H55.2246L78.0266 16.1753H95.0245L117.826 76.5183H101.105L97.512 65.9756H97.7884ZM93.6425 54.0457L86.5946 33.9314L79.5468 54.0457H93.5043H93.6425Z" fill="#0000FF"/>
</svg>
