<svg xmlns="http://www.w3.org/2000/svg" width="512" height="512" viewBox="0 0 512 512" fill="none"><metadata><rdf:RDF xmlns:rdf="http://www.w3.org/1999/02/22-rdf-syntax-ns#" xmlns:dc="http://purl.org/dc/elements/1.1/"><rdf:Description><dc:creator>RealFaviconGenerator</dc:creator><dc:source>https://realfavicongenerator.net</dc:source></rdf:Description></rdf:RDF></metadata><path d="M188.239 121V302.335C188.239 310.141 188.238 316.746 187.045 323.351C186.447 329.956 184.656 335.36 182.865 340.163C179.88 347.369 175.701 354.574 170.925 360.578C165.552 366.583 159.582 371.987 153.015 376.19C145.851 380.393 138.686 383.996 130.328 386.398C121.97 388.799 113.015 390 104.059 390C75.9999 390 53.9103 377.391 36 351.572L80.1788 305.938C81.3728 313.744 83.761 319.748 87.9398 324.551C92.1191 329.355 96.895 331.757 102.268 331.757C114.806 331.757 121.373 321.549 121.373 301.735V121.6H188.835L188.239 121Z" fill="#0000FF"></path><path d="M389.432 337.161H293.313L277.79 382.795H205.552L304.059 121.601H377.491L476 382.795H403.759L388.238 337.161H389.432ZM371.522 285.523L341.074 198.458L310.626 285.523H371.522Z" fill="#0000FF"></path><style>@media (prefers-color-scheme: light) { :root { filter: none; } }
@media (prefers-color-scheme: dark) { :root { filter: invert(100%); } }
</style></svg>